<?xml version="1.0" encoding="UTF-8" standalone="no"?>
<!DOCTYPE svg PUBLIC "-//W3C//DTD SVG 1.1//EN"
 "http://www.w3.org/Graphics/SVG/1.1/DTD/svg11.dtd">
<!-- Generated by graphviz version 2.40.1 (20161225.0304)
 -->
<!-- Title: Lesson Infrastructure Workflow Pages: 1 -->
<svg width="724pt" height="262pt"
 viewBox="0.00 0.00 723.79 262.00" xmlns="http://www.w3.org/2000/svg" xmlns:xlink="http://www.w3.org/1999/xlink">
<g id="graph0" class="graph" transform="scale(1 1) rotate(0) translate(4 258)">
<title>Lesson Infrastructure Workflow</title>
<polygon fill="#ffffff" stroke="transparent" points="-4,4 -4,-258 719.7866,-258 719.7866,4 -4,4"/>
<!-- source -->
<g id="node1" class="node">
<title>source</title>
<polygon fill="#f5deb3" stroke="#333333" points="366.6909,-182 363.6909,-186 342.6909,-186 339.6909,-182 260.6909,-182 260.6909,-146 366.6909,-146 366.6909,-182"/>
<text text-anchor="middle" x="313.6909" y="-160.3" font-family="Times,serif" font-size="14.00" fill="#000000">Source Files</text>
</g>
<!-- sandpaper -->
<g id="node4" class="node">
<title>sandpaper</title>
<polygon fill="#e6e6fa" stroke="#333333" points="382.6909,-110 244.6909,-110 244.6909,-72 382.6909,-72 382.6909,-110"/>
<text text-anchor="middle" x="313.6909" y="-94.8" font-family="Times,serif" font-size="14.00" fill="#000000">{sandpaper}</text>
<text text-anchor="middle" x="313.6909" y="-79.8" font-family="Times,serif" font-size="14.00" fill="#000000">Lesson Template</text>
</g>
<!-- source&#45;&gt;sandpaper -->
<g id="edge5" class="edge">
<title>source&#45;&gt;sandpaper</title>
<path fill="none" stroke="#000000" d="M313.6909,-145.9551C313.6909,-138.2107 313.6909,-128.9622 313.6909,-120.2811"/>
<polygon fill="#000000" stroke="#000000" points="317.191,-120.1128 313.6909,-110.1128 310.191,-120.1129 317.191,-120.1128"/>
</g>
<!-- stage -->
<g id="node2" class="node">
<title>stage</title>
<polygon fill="#f5deb3" stroke="#333333" points="362.6909,-36 258.6909,-36 258.6909,0 368.6909,0 368.6909,-30 362.6909,-36"/>
<polyline fill="none" stroke="#333333" points="362.6909,-36 362.6909,-30 "/>
<polyline fill="none" stroke="#333333" points="368.6909,-30 362.6909,-30 "/>
<text text-anchor="middle" x="313.6909" y="-14.3" font-family="Times,serif" font-size="14.00" fill="#000000">Staging Area</text>
</g>
<!-- pandoc -->
<g id="node7" class="node">
<title>pandoc</title>
<polygon fill="#dda0dd" stroke="#333333" points="454.6909,-36 386.6909,-36 386.6909,0 454.6909,0 454.6909,-36"/>
<text text-anchor="middle" x="420.6909" y="-14.3" font-family="Times,serif" font-size="14.00" fill="#000000">Pandoc</text>
</g>
<!-- stage&#45;&gt;pandoc -->
<g id="edge8" class="edge">
<title>stage&#45;&gt;pandoc</title>
<path fill="none" stroke="#000000" d="M368.8628,-18C371.4609,-18 374.0591,-18 376.6572,-18"/>
<polygon fill="#000000" stroke="#000000" points="376.6787,-21.5001 386.6787,-18 376.6786,-14.5001 376.6787,-21.5001"/>
</g>
<!-- site -->
<g id="node3" class="node">
<title>site</title>
<polygon fill="#f5deb3" stroke="#333333" points="621.6909,-182 505.6909,-182 505.6909,-186 493.6909,-186 493.6909,-146 621.6909,-146 621.6909,-182"/>
<polyline fill="none" stroke="#333333" points="493.6909,-182 505.6909,-182 "/>
<text text-anchor="middle" x="557.6909" y="-160.3" font-family="Times,serif" font-size="14.00" fill="#000000">Lesson Website</text>
</g>
<!-- sandpaper&#45;&gt;stage -->
<g id="edge6" class="edge">
<title>sandpaper&#45;&gt;stage</title>
<path fill="none" stroke="#000000" d="M313.6909,-71.8201C313.6909,-64.0975 313.6909,-55.0282 313.6909,-46.5585"/>
<polygon fill="#000000" stroke="#000000" points="317.191,-46.2973 313.6909,-36.2973 310.191,-46.2974 317.191,-46.2973"/>
</g>
<!-- varnish -->
<g id="node5" class="node">
<title>varnish</title>
<polygon fill="#e6e6fa" stroke="#333333" points="611.6909,-110 503.6909,-110 503.6909,-72 611.6909,-72 611.6909,-110"/>
<text text-anchor="middle" x="557.6909" y="-94.8" font-family="Times,serif" font-size="14.00" fill="#000000">{varnish}</text>
<text text-anchor="middle" x="557.6909" y="-79.8" font-family="Times,serif" font-size="14.00" fill="#000000">Lesson Style</text>
</g>
<!-- varnish&#45;&gt;site -->
<g id="edge7" class="edge">
<title>varnish&#45;&gt;site</title>
<path fill="none" stroke="#000000" d="M557.6909,-110.1128C557.6909,-117.99 557.6909,-127.2769 557.6909,-135.9019"/>
<polygon fill="#000000" stroke="#000000" points="554.191,-135.955 557.6909,-145.9551 561.191,-135.9551 554.191,-135.955"/>
</g>
<!-- engine -->
<g id="node6" class="node">
<title>engine</title>
<polygon fill="#dda0dd" stroke="#333333" points="642.6909,-36 472.6909,-36 472.6909,0 642.6909,0 642.6909,-36"/>
<text text-anchor="middle" x="557.6909" y="-14.3" font-family="Times,serif" font-size="14.00" fill="#000000">Static Site Generator</text>
</g>
<!-- engine&#45;&gt;varnish -->
<g id="edge10" class="edge">
<title>engine&#45;&gt;varnish</title>
<path fill="none" stroke="#000000" d="M557.6909,-36.2973C557.6909,-43.9984 557.6909,-53.1526 557.6909,-61.748"/>
<polygon fill="#000000" stroke="#000000" points="554.191,-61.8201 557.6909,-71.8201 561.191,-61.8201 554.191,-61.8201"/>
</g>
<!-- pandoc&#45;&gt;engine -->
<g id="edge9" class="edge">
<title>pandoc&#45;&gt;engine</title>
<path fill="none" stroke="#000000" d="M454.9409,-18C457.4243,-18 459.9078,-18 462.3913,-18"/>
<polygon fill="#000000" stroke="#000000" points="462.6011,-21.5001 472.601,-18 462.601,-14.5001 462.6011,-21.5001"/>
</g>
<!-- maintainer -->
<g id="node8" class="node">
<title>maintainer</title>
<ellipse fill="#b0e0e6" stroke="#333333" cx="102.6909" cy="-236" rx="102.8821" ry="18"/>
<text text-anchor="middle" x="102.6909" y="-232.3" font-family="Times,serif" font-size="14.00" fill="#000000">Lesson Maintainers</text>
</g>
<!-- maintainer&#45;&gt;source -->
<g id="edge1" class="edge">
<title>maintainer&#45;&gt;source</title>
<path fill="none" stroke="#000000" d="M149.7808,-219.9314C179.6101,-209.7527 218.5365,-196.4698 250.9692,-185.4027"/>
<polygon fill="#000000" stroke="#000000" points="252.475,-188.5871 260.8088,-182.0451 250.2143,-181.9621 252.475,-188.5871"/>
</g>
<!-- contributor -->
<g id="node9" class="node">
<title>contributor</title>
<ellipse fill="#b0e0e6" stroke="#333333" cx="329.6909" cy="-236" rx="106.6812" ry="18"/>
<text text-anchor="middle" x="329.6909" y="-232.3" font-family="Times,serif" font-size="14.00" fill="#000000">Lesson Contributors</text>
</g>
<!-- contributor&#45;&gt;source -->
<g id="edge2" class="edge">
<title>contributor&#45;&gt;source</title>
<path fill="none" stroke="#000000" d="M325.6534,-217.8314C323.9422,-210.131 321.9074,-200.9743 320.0057,-192.4166"/>
<polygon fill="#000000" stroke="#000000" points="323.3688,-191.4159 317.7827,-182.4133 316.5355,-192.9344 323.3688,-191.4159"/>
</g>
<!-- instructor -->
<g id="node10" class="node">
<title>instructor</title>
<ellipse fill="#b0e0e6" stroke="#333333" cx="542.6909" cy="-236" rx="58.4896" ry="18"/>
<text text-anchor="middle" x="542.6909" y="-232.3" font-family="Times,serif" font-size="14.00" fill="#000000">Instructor</text>
</g>
<!-- instructor&#45;&gt;site -->
<g id="edge3" class="edge">
<title>instructor&#45;&gt;site</title>
<path fill="none" stroke="#000000" d="M546.476,-217.8314C548.0803,-210.131 549.9879,-200.9743 551.7708,-192.4166"/>
<polygon fill="#000000" stroke="#000000" points="555.2416,-192.9169 553.8548,-182.4133 548.3887,-191.4892 555.2416,-192.9169"/>
</g>
<!-- learner -->
<g id="node11" class="node">
<title>learner</title>
<ellipse fill="#b0e0e6" stroke="#333333" cx="667.6909" cy="-236" rx="48.1917" ry="18"/>
<text text-anchor="middle" x="667.6909" y="-232.3" font-family="Times,serif" font-size="14.00" fill="#000000">Learner</text>
</g>
<!-- learner&#45;&gt;site -->
<g id="edge4" class="edge">
<title>learner&#45;&gt;site</title>
<path fill="none" stroke="#000000" d="M643.5509,-220.1993C629.0367,-210.6991 610.2832,-198.424 594.007,-187.7705"/>
<polygon fill="#000000" stroke="#000000" points="595.5461,-184.5949 585.2622,-182.0467 591.7124,-190.4518 595.5461,-184.5949"/>
</g>
</g>
</svg>
