<?xml version="1.0" encoding="UTF-8" standalone="no"?>
<!DOCTYPE svg PUBLIC "-//W3C//DTD SVG 1.1//EN"
 "http://www.w3.org/Graphics/SVG/1.1/DTD/svg11.dtd">
<!-- Generated by graphviz version 2.43.0 (0)
 -->
<!-- Title: Lesson Infrastructure Workflow Pages: 1 -->
<svg width="717pt" height="262pt"
 viewBox="0.00 0.00 717.49 262.00" xmlns="http://www.w3.org/2000/svg" xmlns:xlink="http://www.w3.org/1999/xlink">
<g id="graph0" class="graph" transform="scale(1 1) rotate(0) translate(4 258)">
<title>Lesson Infrastructure Workflow</title>
<polygon fill="white" stroke="transparent" points="-4,4 -4,-258 713.49,-258 713.49,4 -4,4"/>
<!-- source -->
<g id="node1" class="node">
<title>source</title>
<polygon fill="wheat" stroke="#333333" points="363.54,-182 360.54,-186 339.54,-186 336.54,-182 258.54,-182 258.54,-146 363.54,-146 363.54,-182"/>
<text text-anchor="middle" x="311.04" y="-160.3" font-family="Times,serif" font-size="14.00">Source Files</text>
</g>
<!-- sandpaper -->
<g id="node4" class="node">
<title>sandpaper</title>
<polygon fill="lavender" stroke="#333333" points="379.54,-110 242.54,-110 242.54,-72 379.54,-72 379.54,-110"/>
<text text-anchor="middle" x="311.04" y="-94.8" font-family="Times,serif" font-size="14.00">{sandpaper}</text>
<text text-anchor="middle" x="311.04" y="-79.8" font-family="Times,serif" font-size="14.00">Lesson Template</text>
</g>
<!-- source&#45;&gt;sandpaper -->
<g id="edge5" class="edge">
<title>source&#45;&gt;sandpaper</title>
<path fill="none" stroke="black" d="M311.04,-145.81C311.04,-138.11 311.04,-128.82 311.04,-120.15"/>
<polygon fill="black" stroke="black" points="314.54,-120.02 311.04,-110.02 307.54,-120.02 314.54,-120.02"/>
</g>
<!-- stage -->
<g id="node2" class="node">
<title>stage</title>
<polygon fill="wheat" stroke="#333333" points="360.04,-36 256.04,-36 256.04,0 366.04,0 366.04,-30 360.04,-36"/>
<polyline fill="none" stroke="#333333" points="360.04,-36 360.04,-30 "/>
<polyline fill="none" stroke="#333333" points="366.04,-30 360.04,-30 "/>
<text text-anchor="middle" x="311.04" y="-14.3" font-family="Times,serif" font-size="14.00">Staging Area</text>
</g>
<!-- pandoc -->
<g id="node7" class="node">
<title>pandoc</title>
<polygon fill="plum" stroke="#333333" points="452.04,-36 384.04,-36 384.04,0 452.04,0 452.04,-36"/>
<text text-anchor="middle" x="418.04" y="-14.3" font-family="Times,serif" font-size="14.00">Pandoc</text>
</g>
<!-- stage&#45;&gt;pandoc -->
<g id="edge8" class="edge">
<title>stage&#45;&gt;pandoc</title>
<path fill="none" stroke="black" d="M366.21,-18C368.81,-18 371.41,-18 374.01,-18"/>
<polygon fill="black" stroke="black" points="374.03,-21.5 384.03,-18 374.03,-14.5 374.03,-21.5"/>
</g>
<!-- site -->
<g id="node3" class="node">
<title>site</title>
<polygon fill="wheat" stroke="#333333" points="619.04,-182 503.04,-182 503.04,-186 491.04,-186 491.04,-146 619.04,-146 619.04,-182"/>
<polyline fill="none" stroke="#333333" points="491.04,-182 503.04,-182 "/>
<text text-anchor="middle" x="555.04" y="-160.3" font-family="Times,serif" font-size="14.00">Lesson Website</text>
</g>
<!-- sandpaper&#45;&gt;stage -->
<g id="edge6" class="edge">
<title>sandpaper&#45;&gt;stage</title>
<path fill="none" stroke="black" d="M311.04,-71.72C311.04,-63.97 311.04,-54.79 311.04,-46.27"/>
<polygon fill="black" stroke="black" points="314.54,-46 311.04,-36 307.54,-46 314.54,-46"/>
</g>
<!-- varnish -->
<g id="node5" class="node">
<title>varnish</title>
<polygon fill="lavender" stroke="#333333" points="608.54,-110 501.54,-110 501.54,-72 608.54,-72 608.54,-110"/>
<text text-anchor="middle" x="555.04" y="-94.8" font-family="Times,serif" font-size="14.00">{varnish}</text>
<text text-anchor="middle" x="555.04" y="-79.8" font-family="Times,serif" font-size="14.00">Lesson Style</text>
</g>
<!-- varnish&#45;&gt;site -->
<g id="edge7" class="edge">
<title>varnish&#45;&gt;site</title>
<path fill="none" stroke="black" d="M555.04,-110.02C555.04,-117.83 555.04,-127.15 555.04,-135.78"/>
<polygon fill="black" stroke="black" points="551.54,-135.81 555.04,-145.81 558.54,-135.81 551.54,-135.81"/>
</g>
<!-- engine -->
<g id="node6" class="node">
<title>engine</title>
<polygon fill="plum" stroke="#333333" points="639.54,-36 470.54,-36 470.54,0 639.54,0 639.54,-36"/>
<text text-anchor="middle" x="555.04" y="-14.3" font-family="Times,serif" font-size="14.00">Static Site Generator</text>
</g>
<!-- engine&#45;&gt;varnish -->
<g id="edge10" class="edge">
<title>engine&#45;&gt;varnish</title>
<path fill="none" stroke="black" d="M555.04,-36C555.04,-43.66 555.04,-52.92 555.04,-61.58"/>
<polygon fill="black" stroke="black" points="551.54,-61.72 555.04,-71.72 558.54,-61.72 551.54,-61.72"/>
</g>
<!-- pandoc&#45;&gt;engine -->
<g id="edge9" class="edge">
<title>pandoc&#45;&gt;engine</title>
<path fill="none" stroke="black" d="M452.29,-18C454.92,-18 457.56,-18 460.19,-18"/>
<polygon fill="black" stroke="black" points="460.35,-21.5 470.35,-18 460.35,-14.5 460.35,-21.5"/>
</g>
<!-- maintainer -->
<g id="node8" class="node">
<title>maintainer</title>
<ellipse fill="powderblue" stroke="#333333" cx="102.04" cy="-236" rx="102.08" ry="18"/>
<text text-anchor="middle" x="102.04" y="-232.3" font-family="Times,serif" font-size="14.00">Lesson Maintainers</text>
</g>
<!-- maintainer&#45;&gt;source -->
<g id="edge1" class="edge">
<title>maintainer&#45;&gt;source</title>
<path fill="none" stroke="black" d="M147.39,-219.81C177.66,-209.67 217.8,-196.23 250.75,-185.19"/>
<polygon fill="black" stroke="black" points="251.91,-188.5 260.28,-182 249.69,-181.86 251.91,-188.5"/>
</g>
<!-- contributor -->
<g id="node9" class="node">
<title>contributor</title>
<ellipse fill="powderblue" stroke="#333333" cx="327.04" cy="-236" rx="105.08" ry="18"/>
<text text-anchor="middle" x="327.04" y="-232.3" font-family="Times,serif" font-size="14.00">Lesson Contributors</text>
</g>
<!-- contributor&#45;&gt;source -->
<g id="edge2" class="edge">
<title>contributor&#45;&gt;source</title>
<path fill="none" stroke="black" d="M323.09,-217.7C321.32,-209.98 319.2,-200.71 317.24,-192.11"/>
<polygon fill="black" stroke="black" points="320.59,-191.07 314.95,-182.1 313.77,-192.63 320.59,-191.07"/>
</g>
<!-- instructor -->
<g id="node10" class="node">
<title>instructor</title>
<ellipse fill="powderblue" stroke="#333333" cx="539.04" cy="-236" rx="57.69" ry="18"/>
<text text-anchor="middle" x="539.04" y="-232.3" font-family="Times,serif" font-size="14.00">Instructor</text>
</g>
<!-- instructor&#45;&gt;site -->
<g id="edge3" class="edge">
<title>instructor&#45;&gt;site</title>
<path fill="none" stroke="black" d="M543,-217.7C544.76,-209.98 546.88,-200.71 548.84,-192.11"/>
<polygon fill="black" stroke="black" points="552.32,-192.63 551.13,-182.1 545.49,-191.07 552.32,-192.63"/>
</g>
<!-- learner -->
<g id="node11" class="node">
<title>learner</title>
<ellipse fill="powderblue" stroke="#333333" cx="662.04" cy="-236" rx="47.39" ry="18"/>
<text text-anchor="middle" x="662.04" y="-232.3" font-family="Times,serif" font-size="14.00">Learner</text>
</g>
<!-- learner&#45;&gt;site -->
<g id="edge4" class="edge">
<title>learner&#45;&gt;site</title>
<path fill="none" stroke="black" d="M639.35,-220.15C624.96,-210.74 606.06,-198.38 589.8,-187.74"/>
<polygon fill="black" stroke="black" points="591.37,-184.59 581.09,-182.04 587.54,-190.44 591.37,-184.59"/>
</g>
</g>
</svg>
