<?xml version="1.0" encoding="UTF-8" standalone="no"?>
<!DOCTYPE svg PUBLIC "-//W3C//DTD SVG 1.1//EN"
 "http://www.w3.org/Graphics/SVG/1.1/DTD/svg11.dtd">
<!-- Generated by graphviz version 2.40.1 (20161225.0304)
 -->
<!-- Title: Lesson Infrastructure Workflow Pages: 1 -->
<svg width="582pt" height="262pt"
 viewBox="0.00 0.00 581.94 262.00" xmlns="http://www.w3.org/2000/svg" xmlns:xlink="http://www.w3.org/1999/xlink">
<g id="graph0" class="graph" transform="scale(1 1) rotate(0) translate(4 258)">
<title>Lesson Infrastructure Workflow</title>
<polygon fill="#ffffff" stroke="transparent" points="-4,4 -4,-258 577.9394,-258 577.9394,4 -4,4"/>
<!-- source -->
<g id="node1" class="node">
<title>source</title>
<polygon fill="#f5deb3" stroke="#333333" points="289.5928,-182 286.5928,-186 265.5928,-186 262.5928,-182 205.5928,-182 205.5928,-146 289.5928,-146 289.5928,-182"/>
<text text-anchor="middle" x="247.5928" y="-160.3" font-family="Times,serif" font-size="14.00" fill="#000000">Source Files</text>
</g>
<!-- sandpaper -->
<g id="node4" class="node">
<title>sandpaper</title>
<polygon fill="#e6e6fa" stroke="#333333" points="302.5928,-110 192.5928,-110 192.5928,-72 302.5928,-72 302.5928,-110"/>
<text text-anchor="middle" x="247.5928" y="-94.8" font-family="Times,serif" font-size="14.00" fill="#000000">{sandpaper}</text>
<text text-anchor="middle" x="247.5928" y="-79.8" font-family="Times,serif" font-size="14.00" fill="#000000">Lesson Template</text>
</g>
<!-- source&#45;&gt;sandpaper -->
<g id="edge5" class="edge">
<title>source&#45;&gt;sandpaper</title>
<path fill="none" stroke="#000000" d="M247.5928,-145.9551C247.5928,-138.2107 247.5928,-128.9622 247.5928,-120.2811"/>
<polygon fill="#000000" stroke="#000000" points="251.0929,-120.1128 247.5928,-110.1128 244.0929,-120.1129 251.0929,-120.1128"/>
</g>
<!-- stage -->
<g id="node2" class="node">
<title>stage</title>
<polygon fill="#f5deb3" stroke="#333333" points="285.5928,-36 203.5928,-36 203.5928,0 291.5928,0 291.5928,-30 285.5928,-36"/>
<polyline fill="none" stroke="#333333" points="285.5928,-36 285.5928,-30 "/>
<polyline fill="none" stroke="#333333" points="291.5928,-30 285.5928,-30 "/>
<text text-anchor="middle" x="247.5928" y="-14.3" font-family="Times,serif" font-size="14.00" fill="#000000">Staging Area</text>
</g>
<!-- pandoc -->
<g id="node7" class="node">
<title>pandoc</title>
<polygon fill="#dda0dd" stroke="#333333" points="365.5928,-36 309.5928,-36 309.5928,0 365.5928,0 365.5928,-36"/>
<text text-anchor="middle" x="337.5928" y="-14.3" font-family="Times,serif" font-size="14.00" fill="#000000">Pandoc</text>
</g>
<!-- stage&#45;&gt;pandoc -->
<g id="edge8" class="edge">
<title>stage&#45;&gt;pandoc</title>
<path fill="none" stroke="#000000" d="M291.8897,-18C294.3501,-18 296.8104,-18 299.2707,-18"/>
<polygon fill="#000000" stroke="#000000" points="299.3855,-21.5001 309.3855,-18 299.3854,-14.5001 299.3855,-21.5001"/>
</g>
<!-- site -->
<g id="node3" class="node">
<title>site</title>
<polygon fill="#f5deb3" stroke="#333333" points="500.5928,-182 408.5928,-182 408.5928,-186 396.5928,-186 396.5928,-146 500.5928,-146 500.5928,-182"/>
<polyline fill="none" stroke="#333333" points="396.5928,-182 408.5928,-182 "/>
<text text-anchor="middle" x="448.5928" y="-160.3" font-family="Times,serif" font-size="14.00" fill="#000000">Lesson Website</text>
</g>
<!-- sandpaper&#45;&gt;stage -->
<g id="edge6" class="edge">
<title>sandpaper&#45;&gt;stage</title>
<path fill="none" stroke="#000000" d="M247.5928,-71.8201C247.5928,-64.0975 247.5928,-55.0282 247.5928,-46.5585"/>
<polygon fill="#000000" stroke="#000000" points="251.0929,-46.2973 247.5928,-36.2973 244.0929,-46.2974 251.0929,-46.2973"/>
</g>
<!-- varnish -->
<g id="node5" class="node">
<title>varnish</title>
<polygon fill="#e6e6fa" stroke="#333333" points="491.5928,-110 405.5928,-110 405.5928,-72 491.5928,-72 491.5928,-110"/>
<text text-anchor="middle" x="448.5928" y="-94.8" font-family="Times,serif" font-size="14.00" fill="#000000">{varnish}</text>
<text text-anchor="middle" x="448.5928" y="-79.8" font-family="Times,serif" font-size="14.00" fill="#000000">Lesson Style</text>
</g>
<!-- varnish&#45;&gt;site -->
<g id="edge7" class="edge">
<title>varnish&#45;&gt;site</title>
<path fill="none" stroke="#000000" d="M448.5928,-110.1128C448.5928,-117.99 448.5928,-127.2769 448.5928,-135.9019"/>
<polygon fill="#000000" stroke="#000000" points="445.0929,-135.955 448.5928,-145.9551 452.0929,-135.9551 445.0929,-135.955"/>
</g>
<!-- engine -->
<g id="node6" class="node">
<title>engine</title>
<polygon fill="#dda0dd" stroke="#333333" points="513.5928,-36 383.5928,-36 383.5928,0 513.5928,0 513.5928,-36"/>
<text text-anchor="middle" x="448.5928" y="-14.3" font-family="Times,serif" font-size="14.00" fill="#000000">Static Site Generator</text>
</g>
<!-- engine&#45;&gt;varnish -->
<g id="edge10" class="edge">
<title>engine&#45;&gt;varnish</title>
<path fill="none" stroke="#000000" d="M448.5928,-36.2973C448.5928,-43.9984 448.5928,-53.1526 448.5928,-61.748"/>
<polygon fill="#000000" stroke="#000000" points="445.0929,-61.8201 448.5928,-71.8201 452.0929,-61.8201 445.0929,-61.8201"/>
</g>
<!-- pandoc&#45;&gt;engine -->
<g id="edge9" class="edge">
<title>pandoc&#45;&gt;engine</title>
<path fill="none" stroke="#000000" d="M365.7764,-18C368.3712,-18 370.9659,-18 373.5607,-18"/>
<polygon fill="#000000" stroke="#000000" points="373.5691,-21.5001 383.569,-18 373.569,-14.5001 373.5691,-21.5001"/>
</g>
<!-- maintainer -->
<g id="node8" class="node">
<title>maintainer</title>
<ellipse fill="#b0e0e6" stroke="#333333" cx="80.5928" cy="-236" rx="80.6858" ry="18"/>
<text text-anchor="middle" x="80.5928" y="-232.3" font-family="Times,serif" font-size="14.00" fill="#000000">Lesson Maintainers</text>
</g>
<!-- maintainer&#45;&gt;source -->
<g id="edge1" class="edge">
<title>maintainer&#45;&gt;source</title>
<path fill="none" stroke="#000000" d="M118.0709,-219.8418C141.1797,-209.8787 171.1277,-196.967 196.4047,-186.0692"/>
<polygon fill="#000000" stroke="#000000" points="198.0424,-189.1746 205.8396,-182.0014 195.271,-182.7465 198.0424,-189.1746"/>
</g>
<!-- contributor -->
<g id="node9" class="node">
<title>contributor</title>
<ellipse fill="#b0e0e6" stroke="#333333" cx="261.5928" cy="-236" rx="82.5854" ry="18"/>
<text text-anchor="middle" x="261.5928" y="-232.3" font-family="Times,serif" font-size="14.00" fill="#000000">Lesson Contributors</text>
</g>
<!-- contributor&#45;&gt;source -->
<g id="edge2" class="edge">
<title>contributor&#45;&gt;source</title>
<path fill="none" stroke="#000000" d="M258.0601,-217.8314C256.5628,-210.131 254.7823,-200.9743 253.1183,-192.4166"/>
<polygon fill="#000000" stroke="#000000" points="256.5176,-191.5614 251.1732,-182.4133 249.6463,-192.8975 256.5176,-191.5614"/>
</g>
<!-- instructor -->
<g id="node10" class="node">
<title>instructor</title>
<ellipse fill="#b0e0e6" stroke="#333333" cx="434.5928" cy="-236" rx="44.6926" ry="18"/>
<text text-anchor="middle" x="434.5928" y="-232.3" font-family="Times,serif" font-size="14.00" fill="#000000">Instructor</text>
</g>
<!-- instructor&#45;&gt;site -->
<g id="edge3" class="edge">
<title>instructor&#45;&gt;site</title>
<path fill="none" stroke="#000000" d="M438.1256,-217.8314C439.6229,-210.131 441.4034,-200.9743 443.0674,-192.4166"/>
<polygon fill="#000000" stroke="#000000" points="446.5394,-192.8975 445.0125,-182.4133 439.6681,-191.5614 446.5394,-192.8975"/>
</g>
<!-- learner -->
<g id="node11" class="node">
<title>learner</title>
<ellipse fill="#b0e0e6" stroke="#333333" cx="535.5928" cy="-236" rx="38.1938" ry="18"/>
<text text-anchor="middle" x="535.5928" y="-232.3" font-family="Times,serif" font-size="14.00" fill="#000000">Learner</text>
</g>
<!-- learner&#45;&gt;site -->
<g id="edge4" class="edge">
<title>learner&#45;&gt;site</title>
<path fill="none" stroke="#000000" d="M516.2847,-220.0209C505.1971,-210.8449 491.035,-199.1245 478.5331,-188.7781"/>
<polygon fill="#000000" stroke="#000000" points="480.5418,-185.8974 470.6063,-182.2181 476.0788,-191.2902 480.5418,-185.8974"/>
</g>
</g>
</svg>
