<?xml version="1.0" encoding="UTF-8" standalone="no"?>
<!DOCTYPE svg PUBLIC "-//W3C//DTD SVG 1.1//EN"
 "http://www.w3.org/Graphics/SVG/1.1/DTD/svg11.dtd">
<!-- Generated by graphviz version 2.40.1 (20161225.0304)
 -->
<!-- Title: Infrastructure Dependencies Pages: 1 -->
<svg width="654pt" height="489pt"
 viewBox="0.00 0.00 654.45 489.00" xmlns="http://www.w3.org/2000/svg" xmlns:xlink="http://www.w3.org/1999/xlink">
<g id="graph0" class="graph" transform="scale(1 1) rotate(0) translate(4 485)">
<title>Infrastructure Dependencies</title>
<polygon fill="#ffffff" stroke="transparent" points="-4,4 -4,-485 650.452,-485 650.452,4 -4,4"/>
<!-- source -->
<g id="node1" class="node">
<title>source</title>
<polygon fill="#f5deb3" stroke="#333333" points="111.452,-481 108.452,-485 87.452,-485 84.452,-481 5.452,-481 5.452,-443 111.452,-443 111.452,-481"/>
<text text-anchor="middle" x="58.452" y="-465.8" font-family="Times,serif" font-size="14.00" fill="#000000">Source Files</text>
<text text-anchor="middle" x="58.452" y="-450.8" font-family="Times,serif" font-size="14.00" fill="#000000">(main)</text>
</g>
<!-- actions -->
<g id="node4" class="node">
<title>actions</title>
<polygon fill="#333333" stroke="#333333" points="265.452,-392 137.452,-392 137.452,-356 265.452,-356 265.452,-392"/>
<text text-anchor="middle" x="201.452" y="-370.3" font-family="Times,serif" font-size="14.00" fill="#e5e5e5">GitHub Actions</text>
</g>
<!-- source&#45;&gt;actions -->
<g id="edge2" class="edge">
<title>source&#45;&gt;actions</title>
<path fill="none" stroke="#000000" stroke-width="1.5" d="M89.4809,-442.9053C111.1867,-429.5479 140.3121,-411.6245 163.4172,-397.406"/>
<polygon fill="#000000" stroke="#000000" stroke-width="1.5" points="165.2675,-400.3771 171.9497,-392.1553 161.5987,-394.4155 165.2675,-400.3771"/>
<text text-anchor="middle" x="172.952" y="-413.8" font-family="Times,serif" font-size="14.00" fill="#000000">contains</text>
</g>
<!-- cache -->
<g id="node7" class="node">
<title>cache</title>
<polygon fill="#e6e6fa" stroke="#333333" points="154.452,-305 28.452,-305 28.452,-267 154.452,-267 154.452,-305"/>
<text text-anchor="middle" x="91.452" y="-289.8" font-family="Times,serif" font-size="14.00" fill="#000000">{renv}</text>
<text text-anchor="middle" x="91.452" y="-274.8" font-family="Times,serif" font-size="14.00" fill="#000000">Package Cache</text>
</g>
<!-- source&#45;&gt;cache -->
<g id="edge1" class="edge">
<title>source&#45;&gt;cache</title>
<path fill="none" stroke="#000000" stroke-width="1.5" d="M58.6754,-442.6445C59.25,-421.2348 61.174,-385.8201 67.452,-356 70.3758,-342.1123 75.2453,-327.1756 79.8368,-314.6812"/>
<polygon fill="#000000" stroke="#000000" stroke-width="1.5" points="83.1396,-315.8426 83.417,-305.2513 76.5954,-313.3579 83.1396,-315.8426"/>
<text text-anchor="middle" x="97.952" y="-370.3" font-family="Times,serif" font-size="14.00" fill="#000000">contains</text>
</g>
<!-- stage -->
<g id="node2" class="node">
<title>stage</title>
<polygon fill="#f5deb3" stroke="#333333" points="284.452,-216 180.452,-216 180.452,-178 290.452,-178 290.452,-210 284.452,-216"/>
<polyline fill="none" stroke="#333333" points="284.452,-216 284.452,-210 "/>
<polyline fill="none" stroke="#333333" points="290.452,-210 284.452,-210 "/>
<text text-anchor="middle" x="235.452" y="-200.8" font-family="Times,serif" font-size="14.00" fill="#000000">Staging Area</text>
<text text-anchor="middle" x="235.452" y="-185.8" font-family="Times,serif" font-size="14.00" fill="#000000">(md&#45;source)</text>
</g>
<!-- stage&#45;&gt;source -->
<g id="edge12" class="edge">
<title>stage&#45;&gt;source</title>
<path fill="none" stroke="#0000ff" d="M180.2835,-208.3983C123.8115,-221.1582 41.3136,-243.1895 19.452,-267 -23.076,-313.3192 14.6519,-392.4355 39.9638,-434.2346"/>
<polygon fill="#0000ff" stroke="#0000ff" points="37.0427,-436.165 45.2985,-442.8052 42.9855,-432.4659 37.0427,-436.165"/>
<text text-anchor="middle" x="31.952" y="-326.8" font-family="Times,serif" font-size="14.00" fill="#000000">depends</text>
</g>
<!-- sandpaper -->
<g id="node5" class="node">
<title>sandpaper</title>
<polygon fill="#e6e6fa" stroke="#333333" points="488.452,-127 350.452,-127 350.452,-89 488.452,-89 488.452,-127"/>
<text text-anchor="middle" x="419.452" y="-111.8" font-family="Times,serif" font-size="14.00" fill="#000000">{sandpaper}</text>
<text text-anchor="middle" x="419.452" y="-96.8" font-family="Times,serif" font-size="14.00" fill="#000000">Lesson Template</text>
</g>
<!-- stage&#45;&gt;sandpaper -->
<g id="edge11" class="edge">
<title>stage&#45;&gt;sandpaper</title>
<path fill="none" stroke="#0000ff" d="M234.2536,-177.8106C234.6362,-166.809 237.0842,-153.5329 245.452,-145 259.0074,-131.1772 301.0195,-122.0192 340.364,-116.2723"/>
<polygon fill="#0000ff" stroke="#0000ff" points="340.8716,-119.7355 350.2903,-114.884 339.9019,-112.803 340.8716,-119.7355"/>
<text text-anchor="middle" x="275.952" y="-148.8" font-family="Times,serif" font-size="14.00" fill="#000000">depends</text>
</g>
<!-- site -->
<g id="node3" class="node">
<title>site</title>
<polygon fill="#f5deb3" stroke="#333333" points="454.452,-305 338.452,-305 338.452,-309 326.452,-309 326.452,-267 454.452,-267 454.452,-305"/>
<polyline fill="none" stroke="#333333" points="326.452,-305 338.452,-305 "/>
<text text-anchor="middle" x="390.452" y="-289.8" font-family="Times,serif" font-size="14.00" fill="#000000">Lesson Website</text>
<text text-anchor="middle" x="390.452" y="-274.8" font-family="Times,serif" font-size="14.00" fill="#000000">(gh&#45;pages)</text>
</g>
<!-- site&#45;&gt;stage -->
<g id="edge9" class="edge">
<title>site&#45;&gt;stage</title>
<path fill="none" stroke="#0000ff" d="M326.1536,-273.6397C297.656,-267.0701 268.1642,-258.4132 257.452,-249 250.5189,-242.9075 245.7097,-234.2624 242.3999,-225.7664"/>
<polygon fill="#0000ff" stroke="#0000ff" points="245.638,-224.4115 239.1659,-216.0233 238.9944,-226.6167 245.638,-224.4115"/>
<text text-anchor="middle" x="287.952" y="-237.8" font-family="Times,serif" font-size="14.00" fill="#000000">depends</text>
</g>
<!-- site&#45;&gt;sandpaper -->
<g id="edge10" class="edge">
<title>site&#45;&gt;sandpaper</title>
<path fill="none" stroke="#0000ff" d="M393.5555,-266.9509C398.6224,-235.8506 408.705,-173.9648 414.6848,-137.2607"/>
<polygon fill="#0000ff" stroke="#0000ff" points="418.1734,-137.6139 416.327,-127.1812 411.2645,-136.4882 418.1734,-137.6139"/>
<text text-anchor="middle" x="437.952" y="-193.3" font-family="Times,serif" font-size="14.00" fill="#000000">depends</text>
</g>
<!-- varnish -->
<g id="node6" class="node">
<title>varnish</title>
<polygon fill="#e6e6fa" stroke="#333333" points="372.452,-38 264.452,-38 264.452,0 372.452,0 372.452,-38"/>
<text text-anchor="middle" x="318.452" y="-22.8" font-family="Times,serif" font-size="14.00" fill="#000000">{varnish}</text>
<text text-anchor="middle" x="318.452" y="-7.8" font-family="Times,serif" font-size="14.00" fill="#000000">Lesson Style</text>
</g>
<!-- site&#45;&gt;varnish -->
<g id="edge6" class="edge">
<title>site&#45;&gt;varnish</title>
<path fill="none" stroke="#0000ff" d="M382.4903,-266.6552C372.6608,-242.1744 355.9588,-198.5463 345.452,-160 335.1066,-122.0458 327.2546,-77.2944 322.7539,-48.5548"/>
<polygon fill="#0000ff" stroke="#0000ff" points="326.168,-47.7268 321.1949,-38.3717 319.2486,-48.7862 326.168,-47.7268"/>
<text text-anchor="middle" x="375.952" y="-148.8" font-family="Times,serif" font-size="14.00" fill="#000000">depends</text>
</g>
<!-- engine -->
<g id="node8" class="node">
<title>engine</title>
<polygon fill="#dda0dd" stroke="#333333" points="560.452,-37 390.452,-37 390.452,-1 560.452,-1 560.452,-37"/>
<text text-anchor="middle" x="475.452" y="-15.3" font-family="Times,serif" font-size="14.00" fill="#000000">Static Site Generator</text>
</g>
<!-- site&#45;&gt;engine -->
<g id="edge7" class="edge">
<title>site&#45;&gt;engine</title>
<path fill="none" stroke="#0000ff" d="M420.963,-266.7179C438.4005,-254.2299 459.3413,-236.4991 472.452,-216 511.5255,-154.9072 528.1151,-124.5501 504.452,-56 503.207,-52.3933 501.4496,-48.87 499.4085,-45.5199"/>
<polygon fill="#0000ff" stroke="#0000ff" points="502.1153,-43.2845 493.4998,-37.1182 496.3895,-47.3113 502.1153,-43.2845"/>
<text text-anchor="middle" x="539.952" y="-148.8" font-family="Times,serif" font-size="14.00" fill="#000000">depends</text>
</g>
<!-- pandoc -->
<g id="node9" class="node">
<title>pandoc</title>
<polygon fill="#dda0dd" stroke="#333333" points="646.452,-37 578.452,-37 578.452,-1 646.452,-1 646.452,-37"/>
<text text-anchor="middle" x="612.452" y="-15.3" font-family="Times,serif" font-size="14.00" fill="#000000">Pandoc</text>
</g>
<!-- site&#45;&gt;pandoc -->
<g id="edge8" class="edge">
<title>site&#45;&gt;pandoc</title>
<path fill="none" stroke="#0000ff" d="M436.847,-266.9016C479.605,-246.795 541.2986,-210.9475 574.452,-160 596.9893,-125.3666 606.2322,-77.6805 609.9735,-47.5999"/>
<polygon fill="#0000ff" stroke="#0000ff" points="613.4843,-47.698 611.1174,-37.371 606.5276,-46.92 613.4843,-47.698"/>
<text text-anchor="middle" x="612.952" y="-148.8" font-family="Times,serif" font-size="14.00" fill="#000000">depends</text>
</g>
<!-- actions&#45;&gt;stage -->
<g id="edge3" class="edge">
<title>actions&#45;&gt;stage</title>
<path fill="none" stroke="#b22222" stroke-width="2" d="M205.6507,-355.7133C206.9157,-350.0451 208.2789,-343.7723 209.452,-338 217.277,-299.4988 225.3364,-254.8749 230.3667,-226.3136"/>
<polygon fill="#b22222" stroke="#b22222" stroke-width="2" points="233.8603,-226.654 232.1395,-216.1999 226.9654,-225.4454 233.8603,-226.654"/>
<text text-anchor="middle" x="252.952" y="-282.3" font-family="Times,serif" font-size="14.00" fill="#000000">modifies</text>
</g>
<!-- actions&#45;&gt;site -->
<g id="edge4" class="edge">
<title>actions&#45;&gt;site</title>
<path fill="none" stroke="#b22222" stroke-width="2" d="M240.1551,-355.9795C269.0274,-342.5363 308.726,-324.0523 340.0729,-309.457"/>
<polygon fill="#b22222" stroke="#b22222" stroke-width="2" points="341.9237,-312.456 349.5119,-305.0621 338.969,-306.1102 341.9237,-312.456"/>
<text text-anchor="middle" x="336.952" y="-326.8" font-family="Times,serif" font-size="14.00" fill="#000000">modifies</text>
</g>
<!-- actions&#45;&gt;cache -->
<g id="edge5" class="edge">
<title>actions&#45;&gt;cache</title>
<path fill="none" stroke="#b22222" stroke-width="2" d="M173.1367,-355.8576C164.9969,-350.3527 156.2233,-344.1329 148.452,-338 138.2656,-329.961 127.6262,-320.5598 118.3353,-311.9786"/>
<polygon fill="#b22222" stroke="#b22222" stroke-width="2" points="120.5815,-309.287 110.8878,-305.0111 115.7992,-314.3988 120.5815,-309.287"/>
<text text-anchor="middle" x="178.952" y="-326.8" font-family="Times,serif" font-size="14.00" fill="#000000">modifies</text>
</g>
<!-- actions&#45;&gt;cache -->
<g id="edge16" class="edge">
<title>actions&#45;&gt;cache</title>
<path fill="none" stroke="#333333" stroke-dasharray="5,2" d="M137.2077,-359.169C117.5169,-353.2708 99.4425,-345.9833 93.452,-338 88.6261,-331.5686 86.9139,-323.3241 86.7338,-315.3045"/>
<polygon fill="#333333" stroke="#333333" points="90.2421,-315.2253 87.2465,-305.0628 83.2508,-314.8753 90.2421,-315.2253"/>
<text text-anchor="middle" x="109.952" y="-326.8" font-family="Times,serif" font-size="14.00" fill="#000000">uses</text>
</g>
<!-- sandpaper&#45;&gt;varnish -->
<g id="edge13" class="edge">
<title>sandpaper&#45;&gt;varnish</title>
<path fill="none" stroke="#333333" stroke-dasharray="5,2" d="M394.8023,-88.7709C387.8075,-83.1542 380.2482,-76.9292 373.452,-71 364.1087,-62.8485 354.1808,-53.6414 345.3687,-45.2644"/>
<polygon fill="#333333" stroke="#333333" points="347.5976,-42.5529 337.9547,-38.1639 342.7559,-47.6084 347.5976,-42.5529"/>
<text text-anchor="middle" x="389.952" y="-59.8" font-family="Times,serif" font-size="14.00" fill="#000000">uses</text>
</g>
<!-- sandpaper&#45;&gt;engine -->
<g id="edge15" class="edge">
<title>sandpaper&#45;&gt;engine</title>
<path fill="none" stroke="#333333" stroke-dasharray="5,2" d="M412.9936,-88.6011C410.7472,-78.3102 409.9798,-65.8036 415.452,-56 418.0327,-51.3766 421.4549,-47.2592 425.3604,-43.6087"/>
<polygon fill="#333333" stroke="#333333" points="427.781,-46.1532 433.3725,-37.1539 423.3895,-40.7021 427.781,-46.1532"/>
<text text-anchor="middle" x="431.952" y="-59.8" font-family="Times,serif" font-size="14.00" fill="#000000">uses</text>
</g>
<!-- sandpaper&#45;&gt;pandoc -->
<g id="edge14" class="edge">
<title>sandpaper&#45;&gt;pandoc</title>
<path fill="none" stroke="#333333" stroke-dasharray="5,2" d="M460.8554,-88.9073C492.7113,-74.2172 536.6141,-53.9719 568.9772,-39.048"/>
<polygon fill="#333333" stroke="#333333" points="570.5858,-42.1605 578.2011,-34.7945 567.6545,-35.8038 570.5858,-42.1605"/>
<text text-anchor="middle" x="543.952" y="-59.8" font-family="Times,serif" font-size="14.00" fill="#000000">uses</text>
</g>
</g>
</svg>
