<?xml version="1.0" encoding="UTF-8" standalone="no"?>
<!DOCTYPE svg PUBLIC "-//W3C//DTD SVG 1.1//EN"
 "http://www.w3.org/Graphics/SVG/1.1/DTD/svg11.dtd">
<!-- Generated by graphviz version 2.43.0 (0)
 -->
<!-- Title: Infrastructure Dependencies Pages: 1 -->
<svg width="655pt" height="489pt"
 viewBox="0.00 0.00 655.48 489.00" xmlns="http://www.w3.org/2000/svg" xmlns:xlink="http://www.w3.org/1999/xlink">
<g id="graph0" class="graph" transform="scale(1 1) rotate(0) translate(4 485)">
<title>Infrastructure Dependencies</title>
<polygon fill="white" stroke="transparent" points="-4,4 -4,-485 651.48,-485 651.48,4 -4,4"/>
<!-- source -->
<g id="node1" class="node">
<title>source</title>
<polygon fill="wheat" stroke="#333333" points="109.98,-481 106.98,-485 85.98,-485 82.98,-481 4.98,-481 4.98,-443 109.98,-443 109.98,-481"/>
<text text-anchor="middle" x="57.48" y="-465.8" font-family="Times,serif" font-size="14.00">Source Files</text>
<text text-anchor="middle" x="57.48" y="-450.8" font-family="Times,serif" font-size="14.00">(main)</text>
</g>
<!-- actions -->
<g id="node4" class="node">
<title>actions</title>
<polygon fill="#333333" stroke="#333333" points="261.98,-392 136.98,-392 136.98,-356 261.98,-356 261.98,-392"/>
<text text-anchor="middle" x="199.48" y="-370.3" font-family="Times,serif" font-size="14.00" fill="#e5e5e5">GitHub Actions</text>
</g>
<!-- source&#45;&gt;actions -->
<g id="edge2" class="edge">
<title>source&#45;&gt;actions</title>
<path fill="none" stroke="black" stroke-width="1.5" d="M87.25,-442.97C109.17,-429.69 139.12,-411.56 162.57,-397.36"/>
<polygon fill="black" stroke="black" stroke-width="1.5" points="164.46,-400.3 171.2,-392.13 160.84,-394.31 164.46,-400.3"/>
<text text-anchor="middle" x="170.98" y="-413.8" font-family="Times,serif" font-size="14.00">contains</text>
</g>
<!-- cache -->
<g id="node7" class="node">
<title>cache</title>
<polygon fill="lavender" stroke="#333333" points="151.98,-305 28.98,-305 28.98,-267 151.98,-267 151.98,-305"/>
<text text-anchor="middle" x="90.48" y="-289.8" font-family="Times,serif" font-size="14.00">{renv}</text>
<text text-anchor="middle" x="90.48" y="-274.8" font-family="Times,serif" font-size="14.00">Package Cache</text>
</g>
<!-- source&#45;&gt;cache -->
<g id="edge1" class="edge">
<title>source&#45;&gt;cache</title>
<path fill="none" stroke="black" stroke-width="1.5" d="M57.96,-442.98C58.8,-421.91 61.12,-386.1 67.48,-356 70.43,-342.06 75.25,-327 79.71,-314.52"/>
<polygon fill="black" stroke="black" stroke-width="1.5" points="83,-315.73 83.18,-305.14 76.43,-313.31 83,-315.73"/>
<text text-anchor="middle" x="97.98" y="-370.3" font-family="Times,serif" font-size="14.00">contains</text>
</g>
<!-- stage -->
<g id="node2" class="node">
<title>stage</title>
<polygon fill="wheat" stroke="#333333" points="283.48,-216 179.48,-216 179.48,-178 289.48,-178 289.48,-210 283.48,-216"/>
<polyline fill="none" stroke="#333333" points="283.48,-216 283.48,-210 "/>
<polyline fill="none" stroke="#333333" points="289.48,-210 283.48,-210 "/>
<text text-anchor="middle" x="234.48" y="-200.8" font-family="Times,serif" font-size="14.00">Staging Area</text>
<text text-anchor="middle" x="234.48" y="-185.8" font-family="Times,serif" font-size="14.00">(md&#45;source)</text>
</g>
<!-- stage&#45;&gt;source -->
<g id="edge13" class="edge">
<title>stage&#45;&gt;source</title>
<path fill="none" stroke="blue" d="M179.24,-200.93C130.32,-206.54 60.51,-222.44 19.48,-267 -23.1,-313.24 14.7,-392.61 39.66,-434.04"/>
<polygon fill="blue" stroke="blue" points="36.82,-436.11 45.06,-442.76 42.77,-432.42 36.82,-436.11"/>
<text text-anchor="middle" x="31.98" y="-326.8" font-family="Times,serif" font-size="14.00">depends</text>
</g>
<!-- sandpaper -->
<g id="node5" class="node">
<title>sandpaper</title>
<polygon fill="lavender" stroke="#333333" points="473.98,-127 352.98,-127 352.98,-89 473.98,-89 473.98,-127"/>
<text text-anchor="middle" x="413.48" y="-111.8" font-family="Times,serif" font-size="14.00">{sandpaper}</text>
<text text-anchor="middle" x="413.48" y="-96.8" font-family="Times,serif" font-size="14.00">Lesson Engine</text>
</g>
<!-- stage&#45;&gt;sandpaper -->
<g id="edge12" class="edge">
<title>stage&#45;&gt;sandpaper</title>
<path fill="none" stroke="blue" d="M233.37,-177.67C233.73,-166.78 236.13,-153.49 244.48,-145 258.35,-130.9 302.75,-121.78 342.56,-116.24"/>
<polygon fill="blue" stroke="blue" points="343.11,-119.7 352.56,-114.91 342.19,-112.76 343.11,-119.7"/>
<text text-anchor="middle" x="274.98" y="-148.8" font-family="Times,serif" font-size="14.00">depends</text>
</g>
<!-- site -->
<g id="node3" class="node">
<title>site</title>
<polygon fill="wheat" stroke="#333333" points="451.48,-305 335.48,-305 335.48,-309 323.48,-309 323.48,-267 451.48,-267 451.48,-305"/>
<polyline fill="none" stroke="#333333" points="323.48,-305 335.48,-305 "/>
<text text-anchor="middle" x="387.48" y="-289.8" font-family="Times,serif" font-size="14.00">Lesson Website</text>
<text text-anchor="middle" x="387.48" y="-274.8" font-family="Times,serif" font-size="14.00">(gh&#45;pages)</text>
</g>
<!-- site&#45;&gt;stage -->
<g id="edge10" class="edge">
<title>site&#45;&gt;stage</title>
<path fill="none" stroke="blue" d="M323.48,-272.86C295.64,-266.49 266.98,-258.13 256.48,-249 249.58,-243 244.77,-234.44 241.45,-226.04"/>
<polygon fill="blue" stroke="blue" points="244.72,-224.78 238.21,-216.43 238.09,-227.02 244.72,-224.78"/>
<text text-anchor="middle" x="286.98" y="-237.8" font-family="Times,serif" font-size="14.00">depends</text>
</g>
<!-- site&#45;&gt;sandpaper -->
<g id="edge11" class="edge">
<title>site&#45;&gt;sandpaper</title>
<path fill="none" stroke="blue" d="M390.17,-266.83C394.71,-236.05 403.96,-173.48 409.34,-137.04"/>
<polygon fill="blue" stroke="blue" points="412.81,-137.48 410.81,-127.07 405.89,-136.45 412.81,-137.48"/>
<text text-anchor="middle" x="432.98" y="-193.3" font-family="Times,serif" font-size="14.00">depends</text>
</g>
<!-- varnish -->
<g id="node6" class="node">
<title>varnish</title>
<polygon fill="lavender" stroke="#333333" points="373.98,-38 266.98,-38 266.98,0 373.98,0 373.98,-38"/>
<text text-anchor="middle" x="320.48" y="-22.8" font-family="Times,serif" font-size="14.00">{varnish}</text>
<text text-anchor="middle" x="320.48" y="-7.8" font-family="Times,serif" font-size="14.00">Lesson Style</text>
</g>
<!-- site&#45;&gt;varnish -->
<g id="edge7" class="edge">
<title>site&#45;&gt;varnish</title>
<path fill="none" stroke="blue" d="M379.19,-266.77C368.61,-242.78 350.49,-199.08 340.48,-160 330.76,-122.04 325.39,-76.99 322.72,-48.45"/>
<polygon fill="blue" stroke="blue" points="326.19,-48.02 321.82,-38.37 319.22,-48.64 326.19,-48.02"/>
<text text-anchor="middle" x="370.98" y="-148.8" font-family="Times,serif" font-size="14.00">depends</text>
</g>
<!-- engine -->
<g id="node8" class="node">
<title>engine</title>
<polygon fill="plum" stroke="#333333" points="560.98,-37 391.98,-37 391.98,-1 560.98,-1 560.98,-37"/>
<text text-anchor="middle" x="476.48" y="-15.3" font-family="Times,serif" font-size="14.00">Static Site Generator</text>
</g>
<!-- site&#45;&gt;engine -->
<g id="edge8" class="edge">
<title>site&#45;&gt;engine</title>
<path fill="none" stroke="blue" d="M416.29,-266.91C433.61,-254.59 454.71,-236.78 467.48,-216 502.26,-159.43 495.42,-136.91 503.48,-71 504.29,-64.38 505.59,-62.32 503.48,-56 502.3,-52.46 500.62,-48.98 498.67,-45.67"/>
<polygon fill="blue" stroke="blue" points="501.53,-43.66 493.01,-37.37 495.75,-47.6 501.53,-43.66"/>
<text text-anchor="middle" x="525.98" y="-148.8" font-family="Times,serif" font-size="14.00">depends</text>
</g>
<!-- pandoc -->
<g id="node9" class="node">
<title>pandoc</title>
<polygon fill="plum" stroke="#333333" points="647.48,-37 579.48,-37 579.48,-1 647.48,-1 647.48,-37"/>
<text text-anchor="middle" x="613.48" y="-15.3" font-family="Times,serif" font-size="14.00">Pandoc</text>
</g>
<!-- site&#45;&gt;pandoc -->
<g id="edge9" class="edge">
<title>site&#45;&gt;pandoc</title>
<path fill="none" stroke="blue" d="M428.13,-266.97C438.65,-261.69 449.75,-255.56 459.48,-249 509.1,-215.56 526.44,-209.2 560.48,-160 584.84,-124.78 599.8,-76.91 607.37,-47.25"/>
<polygon fill="blue" stroke="blue" points="610.85,-47.75 609.83,-37.21 604.05,-46.09 610.85,-47.75"/>
<text text-anchor="middle" x="599.98" y="-148.8" font-family="Times,serif" font-size="14.00">depends</text>
</g>
<!-- actions&#45;&gt;stage -->
<g id="edge3" class="edge">
<title>actions&#45;&gt;stage</title>
<path fill="none" stroke="firebrick" stroke-width="2" d="M204.11,-355.97C205.59,-350.27 207.18,-343.88 208.48,-338 217,-299.47 225.01,-254.57 229.82,-226.21"/>
<polygon fill="firebrick" stroke="firebrick" stroke-width="2" points="233.3,-226.64 231.51,-216.2 226.4,-225.48 233.3,-226.64"/>
<text text-anchor="middle" x="251.98" y="-282.3" font-family="Times,serif" font-size="14.00">modifies</text>
</g>
<!-- actions&#45;&gt;site -->
<g id="edge4" class="edge">
<title>actions&#45;&gt;site</title>
<path fill="none" stroke="firebrick" stroke-width="2" d="M237.08,-355.8C266.33,-342.42 307.16,-323.74 338.9,-309.22"/>
<polygon fill="firebrick" stroke="firebrick" stroke-width="2" points="340.37,-312.4 348.01,-305.06 337.46,-306.03 340.37,-312.4"/>
<text text-anchor="middle" x="334.98" y="-326.8" font-family="Times,serif" font-size="14.00">modifies</text>
</g>
<!-- actions&#45;&gt;actions -->
<g id="edge6" class="edge">
<title>actions&#45;&gt;actions</title>
<path fill="none" stroke="firebrick" stroke-width="2" d="M262.26,-381.32C272.75,-380.3 279.98,-377.86 279.98,-374 279.98,-371.59 277.16,-369.73 272.48,-368.43"/>
<polygon fill="firebrick" stroke="firebrick" stroke-width="2" points="272.71,-364.92 262.26,-366.68 271.53,-371.82 272.71,-364.92"/>
<text text-anchor="middle" x="310.48" y="-370.3" font-family="Times,serif" font-size="14.00">modifies</text>
</g>
<!-- actions&#45;&gt;cache -->
<g id="edge5" class="edge">
<title>actions&#45;&gt;cache</title>
<path fill="none" stroke="firebrick" stroke-width="2" d="M172.53,-355.88C164.32,-350.4 155.38,-344.15 147.48,-338 137.17,-329.97 126.36,-320.58 116.96,-312.06"/>
<polygon fill="firebrick" stroke="firebrick" stroke-width="2" points="119.17,-309.33 109.43,-305.15 114.43,-314.49 119.17,-309.33"/>
<text text-anchor="middle" x="177.98" y="-326.8" font-family="Times,serif" font-size="14.00">modifies</text>
</g>
<!-- actions&#45;&gt;cache -->
<g id="edge17" class="edge">
<title>actions&#45;&gt;cache</title>
<path fill="none" stroke="#333333" stroke-dasharray="5,2" d="M136.72,-358.96C116.88,-353.2 98.52,-345.99 92.48,-338 87.65,-331.61 85.99,-323.37 85.85,-315.39"/>
<polygon fill="#333333" stroke="#333333" points="89.35,-315.4 86.41,-305.22 82.37,-315.01 89.35,-315.4"/>
<text text-anchor="middle" x="108.98" y="-326.8" font-family="Times,serif" font-size="14.00">uses</text>
</g>
<!-- sandpaper&#45;&gt;varnish -->
<g id="edge14" class="edge">
<title>sandpaper&#45;&gt;varnish</title>
<path fill="none" stroke="#333333" stroke-dasharray="5,2" d="M392.43,-88.91C385.96,-83.25 378.87,-76.93 372.48,-71 363.68,-62.83 354.26,-53.71 345.88,-45.46"/>
<polygon fill="#333333" stroke="#333333" points="348.1,-42.74 338.53,-38.19 343.18,-47.71 348.1,-42.74"/>
<text text-anchor="middle" x="388.98" y="-59.8" font-family="Times,serif" font-size="14.00">uses</text>
</g>
<!-- sandpaper&#45;&gt;engine -->
<g id="edge16" class="edge">
<title>sandpaper&#45;&gt;engine</title>
<path fill="none" stroke="#333333" stroke-dasharray="5,2" d="M409.67,-88.83C408.48,-78.52 408.73,-65.77 414.48,-56 417.32,-51.17 421.08,-46.93 425.35,-43.22"/>
<polygon fill="#333333" stroke="#333333" points="427.6,-45.9 433.48,-37.09 423.39,-40.31 427.6,-45.9"/>
<text text-anchor="middle" x="430.98" y="-59.8" font-family="Times,serif" font-size="14.00">uses</text>
</g>
<!-- sandpaper&#45;&gt;pandoc -->
<g id="edge15" class="edge">
<title>sandpaper&#45;&gt;pandoc</title>
<path fill="none" stroke="#333333" stroke-dasharray="5,2" d="M454.92,-88.97C488.6,-74.32 535.95,-53.72 570.13,-38.86"/>
<polygon fill="#333333" stroke="#333333" points="571.63,-42.02 579.4,-34.82 568.84,-35.6 571.63,-42.02"/>
<text text-anchor="middle" x="540.98" y="-59.8" font-family="Times,serif" font-size="14.00">uses</text>
</g>
</g>
</svg>
