<?xml version="1.0" encoding="UTF-8" standalone="no"?>
<!DOCTYPE svg PUBLIC "-//W3C//DTD SVG 1.1//EN"
 "http://www.w3.org/Graphics/SVG/1.1/DTD/svg11.dtd">
<!-- Generated by graphviz version 2.40.1 (20161225.0304)
 -->
<!-- Title: Infrastructure Dependencies Pages: 1 -->
<svg width="527pt" height="489pt"
 viewBox="0.00 0.00 527.12 489.00" xmlns="http://www.w3.org/2000/svg" xmlns:xlink="http://www.w3.org/1999/xlink">
<g id="graph0" class="graph" transform="scale(1 1) rotate(0) translate(4 485)">
<title>Infrastructure Dependencies</title>
<polygon fill="#ffffff" stroke="transparent" points="-4,4 -4,-485 523.118,-485 523.118,4 -4,4"/>
<!-- source -->
<g id="node1" class="node">
<title>source</title>
<polygon fill="#f5deb3" stroke="#333333" points="87.118,-481 84.118,-485 63.118,-485 60.118,-481 3.118,-481 3.118,-443 87.118,-443 87.118,-481"/>
<text text-anchor="middle" x="45.118" y="-465.8" font-family="Times,serif" font-size="14.00" fill="#000000">Source Files</text>
<text text-anchor="middle" x="45.118" y="-450.8" font-family="Times,serif" font-size="14.00" fill="#000000">(main)</text>
</g>
<!-- actions -->
<g id="node4" class="node">
<title>actions</title>
<polygon fill="#333333" stroke="#333333" points="212.618,-392 109.618,-392 109.618,-356 212.618,-356 212.618,-392"/>
<text text-anchor="middle" x="161.118" y="-370.3" font-family="Times,serif" font-size="14.00" fill="#e5e5e5">GitHub Actions</text>
</g>
<!-- source&#45;&gt;actions -->
<g id="edge2" class="edge">
<title>source&#45;&gt;actions</title>
<path fill="none" stroke="#000000" stroke-width="1.5" d="M70.2883,-442.9053C87.5079,-429.8421 110.4841,-412.4119 129.0191,-398.3509"/>
<polygon fill="#000000" stroke="#000000" stroke-width="1.5" points="131.3345,-400.9876 137.186,-392.1553 127.1037,-395.4108 131.3345,-400.9876"/>
<text text-anchor="middle" x="136.118" y="-413.8" font-family="Times,serif" font-size="14.00" fill="#000000">contains</text>
</g>
<!-- cache -->
<g id="node7" class="node">
<title>cache</title>
<polygon fill="#e6e6fa" stroke="#333333" points="127.618,-305 28.618,-305 28.618,-267 127.618,-267 127.618,-305"/>
<text text-anchor="middle" x="78.118" y="-289.8" font-family="Times,serif" font-size="14.00" fill="#000000">{renv}</text>
<text text-anchor="middle" x="78.118" y="-274.8" font-family="Times,serif" font-size="14.00" fill="#000000">Package Cache</text>
</g>
<!-- source&#45;&gt;cache -->
<g id="edge1" class="edge">
<title>source&#45;&gt;cache</title>
<path fill="none" stroke="#000000" stroke-width="1.5" d="M45.6483,-442.6581C46.5337,-421.2604 48.8866,-385.8561 55.118,-356 58.0052,-342.167 62.6834,-327.2378 67.0693,-314.7343"/>
<polygon fill="#000000" stroke="#000000" stroke-width="1.5" points="70.3737,-315.8883 70.4843,-305.294 63.7912,-313.5071 70.3737,-315.8883"/>
<text text-anchor="middle" x="78.118" y="-370.3" font-family="Times,serif" font-size="14.00" fill="#000000">contains</text>
</g>
<!-- stage -->
<g id="node2" class="node">
<title>stage</title>
<polygon fill="#f5deb3" stroke="#333333" points="232.118,-216 150.118,-216 150.118,-178 238.118,-178 238.118,-210 232.118,-216"/>
<polyline fill="none" stroke="#333333" points="232.118,-216 232.118,-210 "/>
<polyline fill="none" stroke="#333333" points="238.118,-210 232.118,-210 "/>
<text text-anchor="middle" x="194.118" y="-200.8" font-family="Times,serif" font-size="14.00" fill="#000000">Staging Area</text>
<text text-anchor="middle" x="194.118" y="-185.8" font-family="Times,serif" font-size="14.00" fill="#000000">(md&#45;source)</text>
</g>
<!-- stage&#45;&gt;source -->
<g id="edge12" class="edge">
<title>stage&#45;&gt;source</title>
<path fill="none" stroke="#0000ff" d="M149.8584,-202.3821C109.3898,-209.7565 51.1121,-227.0139 19.118,-267 -19.4839,-315.2444 9.4561,-392.6831 29.7552,-433.9619"/>
<polygon fill="#0000ff" stroke="#0000ff" points="26.6558,-435.5887 34.3055,-442.919 32.8967,-432.4183 26.6558,-435.5887"/>
<text text-anchor="middle" x="23.618" y="-326.8" font-family="Times,serif" font-size="14.00" fill="#000000">depends</text>
</g>
<!-- sandpaper -->
<g id="node5" class="node">
<title>sandpaper</title>
<polygon fill="#e6e6fa" stroke="#333333" points="393.118,-127 283.118,-127 283.118,-89 393.118,-89 393.118,-127"/>
<text text-anchor="middle" x="338.118" y="-111.8" font-family="Times,serif" font-size="14.00" fill="#000000">{sandpaper}</text>
<text text-anchor="middle" x="338.118" y="-96.8" font-family="Times,serif" font-size="14.00" fill="#000000">Lesson Template</text>
</g>
<!-- stage&#45;&gt;sandpaper -->
<g id="edge11" class="edge">
<title>stage&#45;&gt;sandpaper</title>
<path fill="none" stroke="#0000ff" d="M191.0025,-177.8933C190.3414,-167.058 191.5519,-153.9238 199.118,-145 209.1001,-133.2267 241.8547,-124.196 273.0606,-118.0045"/>
<polygon fill="#0000ff" stroke="#0000ff" points="273.937,-121.4006 283.1071,-116.0941 272.6293,-114.5238 273.937,-121.4006"/>
<text text-anchor="middle" x="221.618" y="-148.8" font-family="Times,serif" font-size="14.00" fill="#000000">depends</text>
</g>
<!-- site -->
<g id="node3" class="node">
<title>site</title>
<polygon fill="#f5deb3" stroke="#333333" points="370.118,-305 278.118,-305 278.118,-309 266.118,-309 266.118,-267 370.118,-267 370.118,-305"/>
<polyline fill="none" stroke="#333333" points="266.118,-305 278.118,-305 "/>
<text text-anchor="middle" x="318.118" y="-289.8" font-family="Times,serif" font-size="14.00" fill="#000000">Lesson Website</text>
<text text-anchor="middle" x="318.118" y="-274.8" font-family="Times,serif" font-size="14.00" fill="#000000">(gh&#45;pages)</text>
</g>
<!-- site&#45;&gt;stage -->
<g id="edge9" class="edge">
<title>site&#45;&gt;stage</title>
<path fill="none" stroke="#0000ff" d="M265.7304,-272.8886C250.7762,-267.3148 235.2619,-259.581 223.118,-249 215.7349,-242.5671 209.8448,-233.7743 205.3538,-225.2491"/>
<polygon fill="#0000ff" stroke="#0000ff" points="208.5068,-223.7296 201.0252,-216.2278 202.1957,-226.7578 208.5068,-223.7296"/>
<text text-anchor="middle" x="245.618" y="-237.8" font-family="Times,serif" font-size="14.00" fill="#000000">depends</text>
</g>
<!-- site&#45;&gt;sandpaper -->
<g id="edge10" class="edge">
<title>site&#45;&gt;sandpaper</title>
<path fill="none" stroke="#0000ff" d="M320.2584,-266.9509C323.7528,-235.8506 330.7062,-173.9648 334.8303,-137.2607"/>
<polygon fill="#0000ff" stroke="#0000ff" points="338.3243,-137.5095 335.9628,-127.1812 331.368,-136.7278 338.3243,-137.5095"/>
<text text-anchor="middle" x="351.618" y="-193.3" font-family="Times,serif" font-size="14.00" fill="#000000">depends</text>
</g>
<!-- varnish -->
<g id="node6" class="node">
<title>varnish</title>
<polygon fill="#e6e6fa" stroke="#333333" points="297.118,-38 211.118,-38 211.118,0 297.118,0 297.118,-38"/>
<text text-anchor="middle" x="254.118" y="-22.8" font-family="Times,serif" font-size="14.00" fill="#000000">{varnish}</text>
<text text-anchor="middle" x="254.118" y="-7.8" font-family="Times,serif" font-size="14.00" fill="#000000">Lesson Style</text>
</g>
<!-- site&#45;&gt;varnish -->
<g id="edge6" class="edge">
<title>site&#45;&gt;varnish</title>
<path fill="none" stroke="#0000ff" d="M312.1252,-266.5625C303.0713,-236.7426 285.7319,-177.8175 274.118,-127 268.0573,-100.4809 262.5407,-69.9803 258.8438,-48.1705"/>
<polygon fill="#0000ff" stroke="#0000ff" points="262.2811,-47.504 257.1807,-38.2176 255.3768,-48.6577 262.2811,-47.504"/>
<text text-anchor="middle" x="303.618" y="-148.8" font-family="Times,serif" font-size="14.00" fill="#000000">depends</text>
</g>
<!-- engine -->
<g id="node8" class="node">
<title>engine</title>
<polygon fill="#dda0dd" stroke="#333333" points="445.118,-37 315.118,-37 315.118,-1 445.118,-1 445.118,-37"/>
<text text-anchor="middle" x="380.118" y="-15.3" font-family="Times,serif" font-size="14.00" fill="#000000">Static Site Generator</text>
</g>
<!-- site&#45;&gt;engine -->
<g id="edge7" class="edge">
<title>site&#45;&gt;engine</title>
<path fill="none" stroke="#0000ff" d="M338.6066,-266.9646C351.6518,-253.8005 367.9499,-235.2477 378.118,-216 411.8754,-152.0989 429.5221,-124.7093 407.118,-56 405.9655,-52.4656 404.3335,-48.9881 402.4356,-45.6647"/>
<polygon fill="#0000ff" stroke="#0000ff" points="405.3528,-43.7306 396.9373,-37.2939 399.502,-47.5736 405.3528,-43.7306"/>
<text text-anchor="middle" x="433.618" y="-148.8" font-family="Times,serif" font-size="14.00" fill="#000000">depends</text>
</g>
<!-- pandoc -->
<g id="node9" class="node">
<title>pandoc</title>
<polygon fill="#dda0dd" stroke="#333333" points="519.118,-37 463.118,-37 463.118,-1 519.118,-1 519.118,-37"/>
<text text-anchor="middle" x="491.118" y="-15.3" font-family="Times,serif" font-size="14.00" fill="#000000">Pandoc</text>
</g>
<!-- site&#45;&gt;pandoc -->
<g id="edge8" class="edge">
<title>site&#45;&gt;pandoc</title>
<path fill="none" stroke="#0000ff" d="M350.7235,-266.9688C384.2,-245.5325 434.8625,-207.4161 460.118,-160 479.2171,-124.1424 486.5583,-77.1643 489.3742,-47.524"/>
<polygon fill="#0000ff" stroke="#0000ff" points="492.8717,-47.6988 490.2202,-37.4411 485.8962,-47.1134 492.8717,-47.6988"/>
<text text-anchor="middle" x="489.618" y="-148.8" font-family="Times,serif" font-size="14.00" fill="#000000">depends</text>
</g>
<!-- actions&#45;&gt;stage -->
<g id="edge3" class="edge">
<title>actions&#45;&gt;stage</title>
<path fill="none" stroke="#b22222" stroke-width="2" d="M169.0962,-355.9617C171.3357,-350.3036 173.5772,-343.974 175.118,-338 184.8546,-300.2493 189.8076,-255.4504 192.1744,-226.6446"/>
<polygon fill="#b22222" stroke="#b22222" stroke-width="2" points="195.6823,-226.6746 192.9594,-216.4356 188.7029,-226.1378 195.6823,-226.6746"/>
<text text-anchor="middle" x="211.618" y="-282.3" font-family="Times,serif" font-size="14.00" fill="#000000">modifies</text>
</g>
<!-- actions&#45;&gt;site -->
<g id="edge4" class="edge">
<title>actions&#45;&gt;site</title>
<path fill="none" stroke="#b22222" stroke-width="2" d="M193.2682,-355.9795C216.9419,-342.7102 249.3778,-324.5295 275.2551,-310.0251"/>
<polygon fill="#b22222" stroke="#b22222" stroke-width="2" points="277.0977,-313.0047 284.1095,-305.0621 273.675,-306.8984 277.0977,-313.0047"/>
<text text-anchor="middle" x="272.618" y="-326.8" font-family="Times,serif" font-size="14.00" fill="#000000">modifies</text>
</g>
<!-- actions&#45;&gt;cache -->
<g id="edge5" class="edge">
<title>actions&#45;&gt;cache</title>
<path fill="none" stroke="#b22222" stroke-width="2" d="M143.2204,-355.7744C137.7048,-350.1087 131.6334,-343.8219 126.118,-338 118.4342,-329.8892 110.1525,-320.9791 102.6673,-312.861"/>
<polygon fill="#b22222" stroke="#b22222" stroke-width="2" points="105.1257,-310.3637 95.7802,-305.3724 99.9733,-315.1022 105.1257,-310.3637"/>
<text text-anchor="middle" x="150.618" y="-326.8" font-family="Times,serif" font-size="14.00" fill="#000000">modifies</text>
</g>
<!-- actions&#45;&gt;cache -->
<g id="edge16" class="edge">
<title>actions&#45;&gt;cache</title>
<path fill="none" stroke="#333333" stroke-dasharray="5,2" d="M109.3771,-358.7213C99.6263,-353.6075 90.5,-346.8611 84.118,-338 79.4281,-331.4882 77.2598,-323.2817 76.4315,-315.3243"/>
<polygon fill="#333333" stroke="#333333" points="79.922,-315.0187 76.015,-305.1706 72.9278,-315.3056 79.922,-315.0187"/>
<text text-anchor="middle" x="96.118" y="-326.8" font-family="Times,serif" font-size="14.00" fill="#000000">uses</text>
</g>
<!-- sandpaper&#45;&gt;varnish -->
<g id="edge13" class="edge">
<title>sandpaper&#45;&gt;varnish</title>
<path fill="none" stroke="#333333" stroke-dasharray="5,2" d="M319.8913,-88.6883C308.0031,-76.0926 292.3261,-59.4824 279.2593,-45.6378"/>
<polygon fill="#333333" stroke="#333333" points="281.7184,-43.1441 272.3092,-38.274 276.6277,-47.9488 281.7184,-43.1441"/>
<text text-anchor="middle" x="313.118" y="-59.8" font-family="Times,serif" font-size="14.00" fill="#000000">uses</text>
</g>
<!-- sandpaper&#45;&gt;engine -->
<g id="edge15" class="edge">
<title>sandpaper&#45;&gt;engine</title>
<path fill="none" stroke="#333333" stroke-dasharray="5,2" d="M333.2992,-88.8818C331.7104,-78.6732 331.3889,-66.1556 336.118,-56 338.0666,-51.8154 340.7473,-47.9351 343.8319,-44.3858"/>
<polygon fill="#333333" stroke="#333333" points="346.4802,-46.6882 351.1025,-37.1548 341.544,-41.7249 346.4802,-46.6882"/>
<text text-anchor="middle" x="348.118" y="-59.8" font-family="Times,serif" font-size="14.00" fill="#000000">uses</text>
</g>
<!-- sandpaper&#45;&gt;pandoc -->
<g id="edge14" class="edge">
<title>sandpaper&#45;&gt;pandoc</title>
<path fill="none" stroke="#333333" stroke-dasharray="5,2" d="M370.9403,-88.9073C395.3393,-74.7144 428.6528,-55.336 454.0178,-40.5812"/>
<polygon fill="#333333" stroke="#333333" points="456.0878,-43.4262 462.9719,-35.3726 452.5681,-37.3754 456.0878,-43.4262"/>
<text text-anchor="middle" x="435.118" y="-59.8" font-family="Times,serif" font-size="14.00" fill="#000000">uses</text>
</g>
</g>
</svg>
