<?xml version="1.0" encoding="UTF-8" standalone="no"?>
<!DOCTYPE svg PUBLIC "-//W3C//DTD SVG 1.1//EN"
 "http://www.w3.org/Graphics/SVG/1.1/DTD/svg11.dtd">
<!-- Generated by graphviz version 2.43.0 (0)
 -->
<!-- Title: Infrastructure Dependencies Pages: 1 -->
<svg width="655pt" height="489pt"
 viewBox="0.00 0.00 655.48 489.00" xmlns="http://www.w3.org/2000/svg" xmlns:xlink="http://www.w3.org/1999/xlink">
<g id="graph0" class="graph" transform="scale(1 1) rotate(0) translate(4 485)">
<title>Infrastructure Dependencies</title>
<polygon fill="white" stroke="transparent" points="-4,4 -4,-485 651.48,-485 651.48,4 -4,4"/>
<!-- source -->
<g id="node1" class="node">
<title>source</title>
<polygon fill="wheat" stroke="#333333" points="109.98,-481 106.98,-485 85.98,-485 82.98,-481 4.98,-481 4.98,-443 109.98,-443 109.98,-481"/>
<text text-anchor="middle" x="57.48" y="-465.8" font-family="Times,serif" font-size="14.00">Source Files</text>
<text text-anchor="middle" x="57.48" y="-450.8" font-family="Times,serif" font-size="14.00">(main)</text>
</g>
<!-- actions -->
<g id="node4" class="node">
<title>actions</title>
<polygon fill="#333333" stroke="#333333" points="261.98,-392 136.98,-392 136.98,-356 261.98,-356 261.98,-392"/>
<text text-anchor="middle" x="199.48" y="-370.3" font-family="Times,serif" font-size="14.00" fill="#e5e5e5">GitHub Actions</text>
</g>
<!-- source&#45;&gt;actions -->
<g id="edge2" class="edge">
<title>source&#45;&gt;actions</title>
<path fill="none" stroke="black" stroke-width="1.5" d="M87.25,-442.97C109.17,-429.69 139.12,-411.56 162.57,-397.36"/>
<polygon fill="black" stroke="black" stroke-width="1.5" points="164.46,-400.3 171.2,-392.13 160.84,-394.31 164.46,-400.3"/>
<text text-anchor="middle" x="170.98" y="-413.8" font-family="Times,serif" font-size="14.00">contains</text>
</g>
<!-- cache -->
<g id="node7" class="node">
<title>cache</title>
<polygon fill="lavender" stroke="#333333" points="151.98,-305 28.98,-305 28.98,-267 151.98,-267 151.98,-305"/>
<text text-anchor="middle" x="90.48" y="-289.8" font-family="Times,serif" font-size="14.00">{renv}</text>
<text text-anchor="middle" x="90.48" y="-274.8" font-family="Times,serif" font-size="14.00">Package Cache</text>
</g>
<!-- source&#45;&gt;cache -->
<g id="edge1" class="edge">
<title>source&#45;&gt;cache</title>
<path fill="none" stroke="black" stroke-width="1.5" d="M57.96,-442.98C58.8,-421.91 61.12,-386.1 67.48,-356 70.43,-342.06 75.25,-327 79.71,-314.52"/>
<polygon fill="black" stroke="black" stroke-width="1.5" points="83,-315.73 83.18,-305.14 76.43,-313.31 83,-315.73"/>
<text text-anchor="middle" x="97.98" y="-370.3" font-family="Times,serif" font-size="14.00">contains</text>
</g>
<!-- stage -->
<g id="node2" class="node">
<title>stage</title>
<polygon fill="wheat" stroke="#333333" points="283.48,-216 179.48,-216 179.48,-178 289.48,-178 289.48,-210 283.48,-216"/>
<polyline fill="none" stroke="#333333" points="283.48,-216 283.48,-210 "/>
<polyline fill="none" stroke="#333333" points="289.48,-210 283.48,-210 "/>
<text text-anchor="middle" x="234.48" y="-200.8" font-family="Times,serif" font-size="14.00">Staging Area</text>
<text text-anchor="middle" x="234.48" y="-185.8" font-family="Times,serif" font-size="14.00">(md&#45;source)</text>
</g>
<!-- stage&#45;&gt;source -->
<g id="edge12" class="edge">
<title>stage&#45;&gt;source</title>
<path fill="none" stroke="blue" d="M179.24,-200.93C130.32,-206.54 60.51,-222.44 19.48,-267 -23.1,-313.24 14.7,-392.61 39.66,-434.04"/>
<polygon fill="blue" stroke="blue" points="36.82,-436.11 45.06,-442.76 42.77,-432.42 36.82,-436.11"/>
<text text-anchor="middle" x="31.98" y="-326.8" font-family="Times,serif" font-size="14.00">depends</text>
</g>
<!-- sandpaper -->
<g id="node5" class="node">
<title>sandpaper</title>
<polygon fill="lavender" stroke="#333333" points="487.98,-127 350.98,-127 350.98,-89 487.98,-89 487.98,-127"/>
<text text-anchor="middle" x="419.48" y="-111.8" font-family="Times,serif" font-size="14.00">{sandpaper}</text>
<text text-anchor="middle" x="419.48" y="-96.8" font-family="Times,serif" font-size="14.00">Lesson Template</text>
</g>
<!-- stage&#45;&gt;sandpaper -->
<g id="edge11" class="edge">
<title>stage&#45;&gt;sandpaper</title>
<path fill="none" stroke="blue" d="M233.35,-177.65C233.7,-166.76 236.1,-153.46 244.48,-145 258.27,-131.09 301.05,-122.14 340.85,-116.64"/>
<polygon fill="blue" stroke="blue" points="341.43,-120.1 350.89,-115.32 340.52,-113.16 341.43,-120.1"/>
<text text-anchor="middle" x="274.98" y="-148.8" font-family="Times,serif" font-size="14.00">depends</text>
</g>
<!-- site -->
<g id="node3" class="node">
<title>site</title>
<polygon fill="wheat" stroke="#333333" points="453.48,-305 337.48,-305 337.48,-309 325.48,-309 325.48,-267 453.48,-267 453.48,-305"/>
<polyline fill="none" stroke="#333333" points="325.48,-305 337.48,-305 "/>
<text text-anchor="middle" x="389.48" y="-289.8" font-family="Times,serif" font-size="14.00">Lesson Website</text>
<text text-anchor="middle" x="389.48" y="-274.8" font-family="Times,serif" font-size="14.00">(gh&#45;pages)</text>
</g>
<!-- site&#45;&gt;stage -->
<g id="edge9" class="edge">
<title>site&#45;&gt;stage</title>
<path fill="none" stroke="blue" d="M325.22,-273.11C296.73,-266.75 267.24,-258.32 256.48,-249 249.57,-243.01 244.76,-234.45 241.44,-226.06"/>
<polygon fill="blue" stroke="blue" points="244.71,-224.8 238.2,-216.44 238.07,-227.03 244.71,-224.8"/>
<text text-anchor="middle" x="286.98" y="-237.8" font-family="Times,serif" font-size="14.00">depends</text>
</g>
<!-- site&#45;&gt;sandpaper -->
<g id="edge10" class="edge">
<title>site&#45;&gt;sandpaper</title>
<path fill="none" stroke="blue" d="M392.58,-266.83C397.83,-236.05 408.49,-173.48 414.7,-137.04"/>
<polygon fill="blue" stroke="blue" points="418.17,-137.52 416.4,-127.07 411.27,-136.34 418.17,-137.52"/>
<text text-anchor="middle" x="436.98" y="-193.3" font-family="Times,serif" font-size="14.00">depends</text>
</g>
<!-- varnish -->
<g id="node6" class="node">
<title>varnish</title>
<polygon fill="lavender" stroke="#333333" points="373.98,-38 266.98,-38 266.98,0 373.98,0 373.98,-38"/>
<text text-anchor="middle" x="320.48" y="-22.8" font-family="Times,serif" font-size="14.00">{varnish}</text>
<text text-anchor="middle" x="320.48" y="-7.8" font-family="Times,serif" font-size="14.00">Lesson Style</text>
</g>
<!-- site&#45;&gt;varnish -->
<g id="edge6" class="edge">
<title>site&#45;&gt;varnish</title>
<path fill="none" stroke="blue" d="M381.97,-266.66C372.34,-242.55 355.68,-198.71 345.48,-160 335.44,-121.89 328.2,-76.88 324.18,-48.39"/>
<polygon fill="blue" stroke="blue" points="327.62,-47.76 322.79,-38.33 320.69,-48.71 327.62,-47.76"/>
<text text-anchor="middle" x="375.98" y="-148.8" font-family="Times,serif" font-size="14.00">depends</text>
</g>
<!-- engine -->
<g id="node8" class="node">
<title>engine</title>
<polygon fill="plum" stroke="#333333" points="560.98,-37 391.98,-37 391.98,-1 560.98,-1 560.98,-37"/>
<text text-anchor="middle" x="476.48" y="-15.3" font-family="Times,serif" font-size="14.00">Static Site Generator</text>
</g>
<!-- site&#45;&gt;engine -->
<g id="edge7" class="edge">
<title>site&#45;&gt;engine</title>
<path fill="none" stroke="blue" d="M418.72,-266.88C436.36,-254.54 457.97,-236.73 471.48,-216 511.29,-154.94 532.85,-124.33 507.48,-56 506.07,-52.19 504.05,-48.52 501.72,-45.07"/>
<polygon fill="blue" stroke="blue" points="504.33,-42.73 495.42,-37 498.82,-47.04 504.33,-42.73"/>
<text text-anchor="middle" x="541.98" y="-148.8" font-family="Times,serif" font-size="14.00">depends</text>
</g>
<!-- pandoc -->
<g id="node9" class="node">
<title>pandoc</title>
<polygon fill="plum" stroke="#333333" points="647.48,-37 579.48,-37 579.48,-1 647.48,-1 647.48,-37"/>
<text text-anchor="middle" x="613.48" y="-15.3" font-family="Times,serif" font-size="14.00">Pandoc</text>
</g>
<!-- site&#45;&gt;pandoc -->
<g id="edge8" class="edge">
<title>site&#45;&gt;pandoc</title>
<path fill="none" stroke="blue" d="M435.41,-266.93C478.92,-247.33 542.51,-211.74 576.48,-160 599.22,-125.37 608.01,-77.33 611.4,-47.48"/>
<polygon fill="blue" stroke="blue" points="614.9,-47.66 612.41,-37.36 607.93,-46.96 614.9,-47.66"/>
<text text-anchor="middle" x="614.98" y="-148.8" font-family="Times,serif" font-size="14.00">depends</text>
</g>
<!-- actions&#45;&gt;stage -->
<g id="edge3" class="edge">
<title>actions&#45;&gt;stage</title>
<path fill="none" stroke="firebrick" stroke-width="2" d="M204.11,-355.97C205.59,-350.27 207.18,-343.88 208.48,-338 217,-299.47 225.01,-254.57 229.82,-226.21"/>
<polygon fill="firebrick" stroke="firebrick" stroke-width="2" points="233.3,-226.64 231.51,-216.2 226.4,-225.48 233.3,-226.64"/>
<text text-anchor="middle" x="251.98" y="-282.3" font-family="Times,serif" font-size="14.00">modifies</text>
</g>
<!-- actions&#45;&gt;site -->
<g id="edge4" class="edge">
<title>actions&#45;&gt;site</title>
<path fill="none" stroke="firebrick" stroke-width="2" d="M237.48,-355.8C267.04,-342.42 308.31,-323.74 340.38,-309.22"/>
<polygon fill="firebrick" stroke="firebrick" stroke-width="2" points="341.92,-312.37 349.59,-305.06 339.04,-305.99 341.92,-312.37"/>
<text text-anchor="middle" x="335.98" y="-326.8" font-family="Times,serif" font-size="14.00">modifies</text>
</g>
<!-- actions&#45;&gt;cache -->
<g id="edge5" class="edge">
<title>actions&#45;&gt;cache</title>
<path fill="none" stroke="firebrick" stroke-width="2" d="M172.53,-355.88C164.32,-350.4 155.38,-344.15 147.48,-338 137.17,-329.97 126.36,-320.58 116.96,-312.06"/>
<polygon fill="firebrick" stroke="firebrick" stroke-width="2" points="119.17,-309.33 109.43,-305.15 114.43,-314.49 119.17,-309.33"/>
<text text-anchor="middle" x="177.98" y="-326.8" font-family="Times,serif" font-size="14.00">modifies</text>
</g>
<!-- actions&#45;&gt;cache -->
<g id="edge16" class="edge">
<title>actions&#45;&gt;cache</title>
<path fill="none" stroke="#333333" stroke-dasharray="5,2" d="M136.72,-358.96C116.88,-353.2 98.52,-345.99 92.48,-338 87.65,-331.61 85.99,-323.37 85.85,-315.39"/>
<polygon fill="#333333" stroke="#333333" points="89.35,-315.4 86.41,-305.22 82.37,-315.01 89.35,-315.4"/>
<text text-anchor="middle" x="108.98" y="-326.8" font-family="Times,serif" font-size="14.00">uses</text>
</g>
<!-- sandpaper&#45;&gt;varnish -->
<g id="edge13" class="edge">
<title>sandpaper&#45;&gt;varnish</title>
<path fill="none" stroke="#333333" stroke-dasharray="5,2" d="M397.46,-88.86C390.68,-83.2 383.23,-76.89 376.48,-71 366.89,-62.62 356.53,-53.28 347.37,-44.91"/>
<polygon fill="#333333" stroke="#333333" points="349.73,-42.32 340,-38.14 345,-47.48 349.73,-42.32"/>
<text text-anchor="middle" x="392.98" y="-59.8" font-family="Times,serif" font-size="14.00">uses</text>
</g>
<!-- sandpaper&#45;&gt;engine -->
<g id="edge15" class="edge">
<title>sandpaper&#45;&gt;engine</title>
<path fill="none" stroke="#333333" stroke-dasharray="5,2" d="M414.85,-88.93C413.22,-78.66 412.97,-65.91 418.48,-56 421.08,-51.33 424.56,-47.19 428.54,-43.53"/>
<polygon fill="#333333" stroke="#333333" points="431.01,-46.04 436.68,-37.09 426.67,-40.55 431.01,-46.04"/>
<text text-anchor="middle" x="434.98" y="-59.8" font-family="Times,serif" font-size="14.00">uses</text>
</g>
<!-- sandpaper&#45;&gt;pandoc -->
<g id="edge14" class="edge">
<title>sandpaper&#45;&gt;pandoc</title>
<path fill="none" stroke="#333333" stroke-dasharray="5,2" d="M459.68,-88.97C491.8,-74.57 536.76,-54.41 569.77,-39.6"/>
<polygon fill="#333333" stroke="#333333" points="571.48,-42.67 579.17,-35.39 568.62,-36.28 571.48,-42.67"/>
<text text-anchor="middle" x="543.98" y="-59.8" font-family="Times,serif" font-size="14.00">uses</text>
</g>
</g>
</svg>
