<?xml version="1.0" encoding="UTF-8" standalone="no"?>
<!DOCTYPE svg PUBLIC "-//W3C//DTD SVG 1.1//EN"
 "http://www.w3.org/Graphics/SVG/1.1/DTD/svg11.dtd">
<!-- Generated by graphviz version 2.40.1 (20161225.0304)
 -->
<!-- Title: G Pages: 1 -->
<svg width="537pt" height="235pt"
 viewBox="0.00 0.00 537.00 235.00" xmlns="http://www.w3.org/2000/svg" xmlns:xlink="http://www.w3.org/1999/xlink">
<g id="graph0" class="graph" transform="scale(1 1) rotate(0) translate(4 231)">
<title>G</title>
<polygon fill="#ffffff" stroke="transparent" points="-4,4 -4,-231 533,-231 533,4 -4,4"/>
<text text-anchor="middle" x="264.5" y="-211.8" font-family="Times,serif" font-size="14.00" fill="#000000">Building A Local Lesson Website</text>
<g id="clust1" class="cluster">
<title>cluster_bs1</title>
<polygon fill="#e6e6fa" stroke="#333333" points="8,-8 8,-196 521,-196 521,-8 8,-8"/>
<text text-anchor="middle" x="264.5" y="-180.8" font-family="Courrier" font-size="14.00" fill="#333333">build_lesson(rebuild = TRUE)</text>
</g>
<!-- episodes -->
<g id="node1" class="node">
<title>episodes</title>
<polygon fill="#ffffdb" stroke="#333333" points="111.5,-165 108.5,-169 87.5,-169 84.5,-165 16.5,-165 16.5,-127 111.5,-127 111.5,-165"/>
<text text-anchor="middle" x="64" y="-149.8" font-family="Times,serif" font-size="14.00" fill="#000000">episodes/</text>
<text text-anchor="middle" x="64" y="-134.8" font-family="Times,serif" font-size="14.00" fill="#000000">(RMarkdown)</text>
</g>
<!-- markdown -->
<g id="node2" class="node">
<title>markdown</title>
<polygon fill="#f5deb3" stroke="#333333" points="318,-165 315,-169 294,-169 291,-165 232,-165 232,-127 318,-127 318,-165"/>
<text text-anchor="middle" x="275" y="-149.8" font-family="Times,serif" font-size="14.00" fill="#000000">site/built/</text>
<text text-anchor="middle" x="275" y="-134.8" font-family="Times,serif" font-size="14.00" fill="#000000">(Markdown)</text>
</g>
<!-- episodes&#45;&gt;markdown -->
<g id="edge1" class="edge">
<title>episodes&#45;&gt;markdown</title>
<path fill="none" stroke="#000000" d="M111.6156,-146C144.3309,-146 187.8018,-146 221.679,-146"/>
<polygon fill="#000000" stroke="#000000" points="221.8621,-149.5001 231.8621,-146 221.862,-142.5001 221.8621,-149.5001"/>
<text text-anchor="middle" x="171.75" y="-152.8" font-family="Courrier" font-size="14.00" fill="#4d4d4d">hash episodes</text>
</g>
<!-- html -->
<g id="node3" class="node">
<title>html</title>
<polygon fill="#f5deb3" stroke="#333333" points="513,-165 510,-169 489,-169 486,-165 445,-165 445,-127 513,-127 513,-165"/>
<text text-anchor="middle" x="479" y="-149.8" font-family="Times,serif" font-size="14.00" fill="#000000">site/docs/</text>
<text text-anchor="middle" x="479" y="-134.8" font-family="Times,serif" font-size="14.00" fill="#000000">(HTML)</text>
</g>
<!-- markdown&#45;&gt;html -->
<g id="edge2" class="edge">
<title>markdown&#45;&gt;html</title>
<path fill="none" stroke="#000000" d="M318.2632,-146C352.4989,-146 400.1267,-146 434.6434,-146"/>
<polygon fill="#000000" stroke="#000000" points="434.9053,-149.5001 444.9053,-146 434.9052,-142.5001 434.9053,-149.5001"/>
<text text-anchor="middle" x="381.5" y="-152.8" font-family="Courrier" font-size="14.00" fill="#4d4d4d">apply template</text>
</g>
<!-- n1 -->
<g id="node4" class="node">
<title>n1</title>
<polygon fill="#ffffdb" stroke="#333333" points="356,-52 194,-52 194,-16 356,-16 356,-52"/>
<text text-anchor="middle" x="275" y="-30.3" font-family="Times,serif" font-size="14.00" fill="#000000">pale yellow: tracked by git</text>
</g>
<!-- markdown&#45;&gt;n1 -->
</g>
</svg>
