<?xml version="1.0" encoding="UTF-8" standalone="no"?>
<!DOCTYPE svg PUBLIC "-//W3C//DTD SVG 1.1//EN"
 "http://www.w3.org/Graphics/SVG/1.1/DTD/svg11.dtd">
<!-- Generated by graphviz version 2.40.1 (20161225.0304)
 -->
<!-- Title: G Pages: 1 -->
<svg width="638pt" height="251pt"
 viewBox="0.00 0.00 638.00 250.74" xmlns="http://www.w3.org/2000/svg" xmlns:xlink="http://www.w3.org/1999/xlink">
<g id="graph0" class="graph" transform="scale(1 1) rotate(0) translate(4 246.7401)">
<title>G</title>
<polygon fill="#ffffff" stroke="transparent" points="-4,4 -4,-246.7401 634,-246.7401 634,4 -4,4"/>
<text text-anchor="middle" x="315" y="-227.5401" font-family="Times,serif" font-size="14.00" fill="#000000">Building A Local Lesson Website</text>
<g id="clust1" class="cluster">
<title>cluster_bs1</title>
<polygon fill="#e6e6fa" stroke="#e6e6fa" points="8,-8 8,-211.7401 622,-211.7401 622,-8 8,-8"/>
<text text-anchor="middle" x="315" y="-196.5401" font-family="Courrier" font-size="14.00" fill="#000000">build_lesson(rebuild = TRUE)</text>
</g>
<!-- episodes -->
<g id="node1" class="node">
<title>episodes</title>
<ellipse fill="#ffffdb" stroke="#ffffdb" cx="83" cy="-153.8701" rx="67.3507" ry="26.7407"/>
<text text-anchor="middle" x="83" y="-157.6701" font-family="Times,serif" font-size="14.00" fill="#000000">episodes/</text>
<text text-anchor="middle" x="83" y="-142.6701" font-family="Times,serif" font-size="14.00" fill="#000000">(RMarkdown)</text>
</g>
<!-- markdown -->
<g id="node2" class="node">
<title>markdown</title>
<ellipse fill="#ffffff" stroke="#ffffff" cx="331" cy="-153.8701" rx="60.623" ry="26.7407"/>
<text text-anchor="middle" x="331" y="-157.6701" font-family="Times,serif" font-size="14.00" fill="#000000">site/built/</text>
<text text-anchor="middle" x="331" y="-142.6701" font-family="Times,serif" font-size="14.00" fill="#000000">(Markdown)</text>
</g>
<!-- episodes&#45;&gt;markdown -->
<g id="edge1" class="edge">
<title>episodes&#45;&gt;markdown</title>
<path fill="none" stroke="#000000" d="M150.4395,-153.8701C184.2359,-153.8701 225.1664,-153.8701 259.5071,-153.8701"/>
<polygon fill="#000000" stroke="#000000" points="259.9378,-157.3702 269.9377,-153.8701 259.9377,-150.3702 259.9378,-157.3702"/>
<text text-anchor="middle" x="210.182" y="-160.6701" font-family="Courrier" font-size="14.00" fill="#666666">hash episodes</text>
</g>
<!-- html -->
<g id="node3" class="node">
<title>html</title>
<ellipse fill="#ffffff" stroke="#ffffff" cx="566" cy="-153.8701" rx="48.1667" ry="26.7407"/>
<text text-anchor="middle" x="566" y="-157.6701" font-family="Times,serif" font-size="14.00" fill="#000000">site/docs/</text>
<text text-anchor="middle" x="566" y="-142.6701" font-family="Times,serif" font-size="14.00" fill="#000000">(HTML)</text>
</g>
<!-- markdown&#45;&gt;html -->
<g id="edge2" class="edge">
<title>markdown&#45;&gt;html</title>
<path fill="none" stroke="#000000" d="M391.824,-153.8701C427.4717,-153.8701 472.2714,-153.8701 507.5086,-153.8701"/>
<polygon fill="#000000" stroke="#000000" points="507.6462,-157.3702 517.6462,-153.8701 507.6461,-150.3702 507.6462,-157.3702"/>
<text text-anchor="middle" x="454.864" y="-160.6701" font-family="Courrier" font-size="14.00" fill="#666666">apply template</text>
</g>
<!-- n1 -->
<g id="node4" class="node">
<title>n1</title>
<polygon fill="#ffffdb" stroke="#ffffdb" points="412,-52 250,-52 250,-16 412,-16 412,-52"/>
<text text-anchor="middle" x="331" y="-30.3" font-family="Times,serif" font-size="14.00" fill="#000000">pale yellow: tracked by git</text>
</g>
<!-- markdown&#45;&gt;n1 -->
</g>
</svg>
