<?xml version="1.0" encoding="UTF-8" standalone="no"?>
<!DOCTYPE svg PUBLIC "-//W3C//DTD SVG 1.1//EN"
 "http://www.w3.org/Graphics/SVG/1.1/DTD/svg11.dtd">
<!-- Generated by graphviz version 2.40.1 (20161225.0304)
 -->
<!-- Title: G Pages: 1 -->
<svg width="591pt" height="235pt"
 viewBox="0.00 0.00 591.00 235.00" xmlns="http://www.w3.org/2000/svg" xmlns:xlink="http://www.w3.org/1999/xlink">
<g id="graph0" class="graph" transform="scale(1 1) rotate(0) translate(4 231)">
<title>G</title>
<polygon fill="#ffffff" stroke="transparent" points="-4,4 -4,-231 587,-231 587,4 -4,4"/>
<text text-anchor="middle" x="291.5" y="-211.8" font-family="Times,serif" font-size="14.00" fill="#000000">Building A Local Lesson Website</text>
<g id="clust1" class="cluster">
<title>cluster_bs1</title>
<polygon fill="#e6e6fa" stroke="#333333" points="8,-8 8,-196 575,-196 575,-8 8,-8"/>
<text text-anchor="middle" x="291.5" y="-180.8" font-family="Courrier" font-size="14.00" fill="#333333">build_lesson(rebuild = TRUE)</text>
</g>
<!-- episodes -->
<g id="node1" class="node">
<title>episodes</title>
<polygon fill="#ffffdb" stroke="#333333" points="130,-165 127,-169 106,-169 103,-165 16,-165 16,-127 130,-127 130,-165"/>
<text text-anchor="middle" x="73" y="-149.8" font-family="Times,serif" font-size="14.00" fill="#000000">episodes/</text>
<text text-anchor="middle" x="73" y="-134.8" font-family="Times,serif" font-size="14.00" fill="#000000">(RMarkdown)</text>
</g>
<!-- markdown -->
<g id="node2" class="node">
<title>markdown</title>
<polygon fill="#f5deb3" stroke="#333333" points="355,-165 352,-169 331,-169 328,-165 251,-165 251,-127 355,-127 355,-165"/>
<text text-anchor="middle" x="303" y="-149.8" font-family="Times,serif" font-size="14.00" fill="#000000">site/built/</text>
<text text-anchor="middle" x="303" y="-134.8" font-family="Times,serif" font-size="14.00" fill="#000000">(Markdown)</text>
</g>
<!-- episodes&#45;&gt;markdown -->
<g id="edge1" class="edge">
<title>episodes&#45;&gt;markdown</title>
<path fill="none" stroke="#000000" d="M130.1495,-146C163.6677,-146 206.0516,-146 240.4605,-146"/>
<polygon fill="#000000" stroke="#000000" points="240.8645,-149.5001 250.8645,-146 240.8644,-142.5001 240.8645,-149.5001"/>
<text text-anchor="middle" x="190.5" y="-152.8" font-family="Courrier" font-size="14.00" fill="#4d4d4d">hash episodes</text>
</g>
<!-- html -->
<g id="node3" class="node">
<title>html</title>
<polygon fill="#f5deb3" stroke="#333333" points="566.5,-165 563.5,-169 542.5,-169 539.5,-165 481.5,-165 481.5,-127 566.5,-127 566.5,-165"/>
<text text-anchor="middle" x="524" y="-149.8" font-family="Times,serif" font-size="14.00" fill="#000000">site/docs/</text>
<text text-anchor="middle" x="524" y="-134.8" font-family="Times,serif" font-size="14.00" fill="#000000">(HTML)</text>
</g>
<!-- markdown&#45;&gt;html -->
<g id="edge2" class="edge">
<title>markdown&#45;&gt;html</title>
<path fill="none" stroke="#000000" d="M355.0941,-146C390.0542,-146 435.9601,-146 471.0891,-146"/>
<polygon fill="#000000" stroke="#000000" points="471.1562,-149.5001 481.1561,-146 471.1561,-142.5001 471.1562,-149.5001"/>
<text text-anchor="middle" x="418.25" y="-152.8" font-family="Courrier" font-size="14.00" fill="#4d4d4d">apply template</text>
</g>
<!-- n1 -->
<g id="node4" class="node">
<title>n1</title>
<polygon fill="#ffffdb" stroke="#333333" points="406.5,-52 199.5,-52 199.5,-16 406.5,-16 406.5,-52"/>
<text text-anchor="middle" x="303" y="-30.3" font-family="Times,serif" font-size="14.00" fill="#000000">pale yellow: tracked by git</text>
</g>
<!-- markdown&#45;&gt;n1 -->
</g>
</svg>
