<?xml version="1.0" encoding="UTF-8" standalone="no"?>
<!DOCTYPE svg PUBLIC "-//W3C//DTD SVG 1.1//EN"
 "http://www.w3.org/Graphics/SVG/1.1/DTD/svg11.dtd">
<!-- Generated by graphviz version 2.40.1 (20161225.0304)
 -->
<!-- Title: Pull Request Workflow Pages: 1 -->
<svg width="501pt" height="510pt"
 viewBox="0.00 0.00 501.21 510.00" xmlns="http://www.w3.org/2000/svg" xmlns:xlink="http://www.w3.org/1999/xlink">
<g id="graph0" class="graph" transform="scale(1 1) rotate(0) translate(4 506)">
<title>Pull Request Workflow</title>
<polygon fill="#ffffff" stroke="transparent" points="-4,4 -4,-506 497.2092,-506 497.2092,4 -4,4"/>
<!-- pr -->
<g id="node1" class="node">
<title>pr</title>
<ellipse fill="#e6e6fa" stroke="#333333" cx="214" cy="-484" rx="69.5877" ry="18"/>
<text text-anchor="middle" x="214" y="-480.3" font-family="Times,serif" font-size="14.00" fill="#000000">Pull Request</text>
</g>
<!-- receive -->
<g id="node2" class="node">
<title>receive</title>
<polygon fill="#e6e6fa" stroke="#333333" points="298,-429 130,-429 130,-393 298,-393 298,-429"/>
<text text-anchor="middle" x="214" y="-407.3" font-family="Times,serif" font-size="14.00" fill="#000000">Receive Pull Request</text>
</g>
<!-- pr&#45;&gt;receive -->
<g id="edge1" class="edge">
<title>pr&#45;&gt;receive</title>
<path fill="none" stroke="#000000" d="M214,-465.9551C214,-457.8828 214,-448.1764 214,-439.1817"/>
<polygon fill="#000000" stroke="#000000" points="217.5001,-439.0903 214,-429.0904 210.5001,-439.0904 217.5001,-439.0903"/>
</g>
<!-- validate -->
<g id="node3" class="node">
<title>validate</title>
<polygon fill="#f5deb3" stroke="#333333" points="277.5,-356 150.5,-356 150.5,-320 277.5,-320 277.5,-356"/>
<text text-anchor="middle" x="214" y="-334.3" font-family="Times,serif" font-size="14.00" fill="#000000">Check Valid PR</text>
</g>
<!-- receive&#45;&gt;validate -->
<g id="edge2" class="edge">
<title>receive&#45;&gt;validate</title>
<path fill="none" stroke="#000000" d="M214,-392.9551C214,-384.8828 214,-375.1764 214,-366.1817"/>
<polygon fill="#000000" stroke="#000000" points="217.5001,-366.0903 214,-356.0904 210.5001,-366.0904 217.5001,-366.0903"/>
</g>
<!-- branch -->
<g id="node4" class="node">
<title>branch</title>
<polygon fill="#f5deb3" stroke="#333333" points="194,-269 0,-269 0,-233 194,-233 194,-269"/>
<text text-anchor="middle" x="97" y="-247.3" font-family="Times,serif" font-size="14.00" fill="#000000">Create md&#45;outputs&#45;{PR}</text>
</g>
<!-- validate&#45;&gt;branch -->
<g id="edge3" class="edge">
<title>validate&#45;&gt;branch</title>
<path fill="none" stroke="#0000ff" d="M189.7575,-319.9735C172.2659,-306.9669 148.4652,-289.269 129.3527,-275.0571"/>
<polygon fill="#0000ff" stroke="#0000ff" points="131.3245,-272.1618 121.2114,-269.0034 127.1476,-277.7791 131.3245,-272.1618"/>
<text text-anchor="middle" x="180.5" y="-290.8" font-family="Times,serif" font-size="14.00" fill="#000000">valid</text>
</g>
<!-- comment -->
<g id="node5" class="node">
<title>comment</title>
<polygon fill="#f5deb3" stroke="#333333" points="432.5,-269 229.5,-269 229.5,-233 432.5,-233 432.5,-269"/>
<text text-anchor="middle" x="331" y="-247.3" font-family="Times,serif" font-size="14.00" fill="#000000">Comment on Pull Request</text>
</g>
<!-- validate&#45;&gt;comment -->
<g id="edge4" class="edge">
<title>validate&#45;&gt;comment</title>
<path fill="none" stroke="#ff0000" d="M238.2425,-319.9735C255.7341,-306.9669 279.5348,-289.269 298.6473,-275.0571"/>
<polygon fill="#ff0000" stroke="#ff0000" points="300.8524,-277.7791 306.7886,-269.0034 296.6755,-272.1618 300.8524,-277.7791"/>
<text text-anchor="middle" x="304.5" y="-290.8" font-family="Times,serif" font-size="14.00" fill="#000000">invalid</text>
</g>
<!-- branch&#45;&gt;comment -->
<g id="edge5" class="edge">
<title>branch&#45;&gt;comment</title>
<path fill="none" stroke="#000000" d="M194.3477,-251C202.6333,-251 210.919,-251 219.2047,-251"/>
<polygon fill="#000000" stroke="#000000" points="219.3115,-254.5001 229.3114,-251 219.3114,-247.5001 219.3115,-254.5001"/>
</g>
<!-- review -->
<g id="node8" class="node">
<title>review</title>
<ellipse fill="#f5deb3" stroke="#333333" cx="331" cy="-178" rx="98.5829" ry="18"/>
<text text-anchor="middle" x="331" y="-174.3" font-family="Times,serif" font-size="14.00" fill="#000000">Maintainer Review</text>
</g>
<!-- comment&#45;&gt;review -->
<g id="edge6" class="edge">
<title>comment&#45;&gt;review</title>
<path fill="none" stroke="#000000" d="M331,-232.9551C331,-224.8828 331,-215.1764 331,-206.1817"/>
<polygon fill="#000000" stroke="#000000" points="334.5001,-206.0903 331,-196.0904 327.5001,-206.0904 334.5001,-206.0903"/>
</g>
<!-- deploy -->
<g id="node6" class="node">
<title>deploy</title>
<polygon fill="#f5deb3" stroke="#333333" points="449,-36 383,-36 383,0 449,0 449,-36"/>
<text text-anchor="middle" x="416" y="-14.3" font-family="Times,serif" font-size="14.00" fill="#000000">Deploy</text>
</g>
<!-- destroy -->
<g id="node7" class="node">
<title>destroy</title>
<polygon fill="#f5deb3" stroke="#333333" points="361,-36 159,-36 159,0 361,0 361,-36"/>
<text text-anchor="middle" x="260" y="-14.3" font-family="Times,serif" font-size="14.00" fill="#000000">Destroy md&#45;outputs&#45;{PR}</text>
</g>
<!-- reject -->
<g id="node9" class="node">
<title>reject</title>
<polygon fill="#b22222" stroke="#333333" points="247,-109 173.4348,-91 247,-73 320.5652,-91 247,-109"/>
<text text-anchor="middle" x="247" y="-87.3" font-family="Times,serif" font-size="14.00" fill="#000000">Rejected</text>
</g>
<!-- review&#45;&gt;reject -->
<g id="edge7" class="edge">
<title>review&#45;&gt;reject</title>
<path fill="none" stroke="#ff0000" d="M313.5951,-159.9735C300.5392,-146.4513 282.5875,-127.8585 268.6121,-113.384"/>
<polygon fill="#ff0000" stroke="#ff0000" points="270.7773,-110.5875 261.3134,-105.8246 265.7415,-115.4497 270.7773,-110.5875"/>
<text text-anchor="middle" x="313.5" y="-130.8" font-family="Times,serif" font-size="14.00" fill="#000000">close</text>
</g>
<!-- accept -->
<g id="node10" class="node">
<title>accept</title>
<polygon fill="#b0e0e6" stroke="#333333" points="416,-109 338.581,-91 416,-73 493.419,-91 416,-109"/>
<text text-anchor="middle" x="416" y="-87.3" font-family="Times,serif" font-size="14.00" fill="#000000">Accepted</text>
</g>
<!-- review&#45;&gt;accept -->
<g id="edge8" class="edge">
<title>review&#45;&gt;accept</title>
<path fill="none" stroke="#0000ff" d="M348.6121,-159.9735C361.9457,-146.3261 380.3256,-127.5138 394.5224,-112.983"/>
<polygon fill="#0000ff" stroke="#0000ff" points="397.0313,-115.4234 401.5162,-105.8246 392.0243,-110.5315 397.0313,-115.4234"/>
<text text-anchor="middle" x="402" y="-130.8" font-family="Times,serif" font-size="14.00" fill="#000000">merge</text>
</g>
<!-- reject&#45;&gt;destroy -->
<g id="edge11" class="edge">
<title>reject&#45;&gt;destroy</title>
<path fill="none" stroke="#ff0000" d="M250.0808,-73.7C251.5428,-65.4902 253.3275,-55.4688 254.9779,-46.201"/>
<polygon fill="#ff0000" stroke="#ff0000" points="258.4524,-46.6533 256.7599,-36.1945 251.5608,-45.4259 258.4524,-46.6533"/>
</g>
<!-- accept&#45;&gt;deploy -->
<g id="edge9" class="edge">
<title>accept&#45;&gt;deploy</title>
<path fill="none" stroke="#0000ff" d="M416,-72.9551C416,-64.8828 416,-55.1764 416,-46.1817"/>
<polygon fill="#0000ff" stroke="#0000ff" points="419.5001,-46.0903 416,-36.0904 412.5001,-46.0904 419.5001,-46.0903"/>
</g>
<!-- accept&#45;&gt;destroy -->
<g id="edge10" class="edge">
<title>accept&#45;&gt;destroy</title>
<path fill="none" stroke="#0000ff" d="M390.2398,-78.9455C367.945,-68.5127 335.1119,-53.1485 307.9904,-40.457"/>
<polygon fill="#0000ff" stroke="#0000ff" points="309.2028,-37.1602 298.662,-36.0918 306.2359,-43.5004 309.2028,-37.1602"/>
</g>
</g>
</svg>
