<?xml version="1.0" encoding="UTF-8" standalone="no"?>
<!DOCTYPE svg PUBLIC "-//W3C//DTD SVG 1.1//EN"
 "http://www.w3.org/Graphics/SVG/1.1/DTD/svg11.dtd">
<!-- Generated by graphviz version 2.40.1 (20161225.0304)
 -->
<!-- Title: Pull Request Workflow Pages: 1 -->
<svg width="409pt" height="510pt"
 viewBox="0.00 0.00 408.50 510.00" xmlns="http://www.w3.org/2000/svg" xmlns:xlink="http://www.w3.org/1999/xlink">
<g id="graph0" class="graph" transform="scale(1 1) rotate(0) translate(4 506)">
<title>Pull Request Workflow</title>
<polygon fill="#ffffff" stroke="transparent" points="-4,4 -4,-506 404.5027,-506 404.5027,4 -4,4"/>
<!-- pr -->
<g id="node1" class="node">
<title>pr</title>
<ellipse fill="#e6e6fa" stroke="#e6e6fa" cx="171" cy="-484" rx="55.7903" ry="18"/>
<text text-anchor="middle" x="171" y="-480.3" font-family="Times,serif" font-size="14.00" fill="#000000">Pull Request</text>
</g>
<!-- receive -->
<g id="node2" class="node">
<title>receive</title>
<polygon fill="#e6e6fa" stroke="#e6e6fa" points="237.5,-429 104.5,-429 104.5,-393 237.5,-393 237.5,-429"/>
<text text-anchor="middle" x="171" y="-407.3" font-family="Times,serif" font-size="14.00" fill="#000000">Receive Pull Request</text>
</g>
<!-- pr&#45;&gt;receive -->
<g id="edge1" class="edge">
<title>pr&#45;&gt;receive</title>
<path fill="none" stroke="#000000" d="M171,-465.9551C171,-457.8828 171,-448.1764 171,-439.1817"/>
<polygon fill="#000000" stroke="#000000" points="174.5001,-439.0903 171,-429.0904 167.5001,-439.0904 174.5001,-439.0903"/>
</g>
<!-- validate -->
<g id="node3" class="node">
<title>validate</title>
<polygon fill="#f5deb3" stroke="#f5deb3" points="223.5,-356 118.5,-356 118.5,-320 223.5,-320 223.5,-356"/>
<text text-anchor="middle" x="171" y="-334.3" font-family="Times,serif" font-size="14.00" fill="#000000">Check Valid PR</text>
</g>
<!-- receive&#45;&gt;validate -->
<g id="edge2" class="edge">
<title>receive&#45;&gt;validate</title>
<path fill="none" stroke="#000000" d="M171,-392.9551C171,-384.8828 171,-375.1764 171,-366.1817"/>
<polygon fill="#000000" stroke="#000000" points="174.5001,-366.0903 171,-356.0904 167.5001,-366.0904 174.5001,-366.0903"/>
</g>
<!-- branch -->
<g id="node4" class="node">
<title>branch</title>
<polygon fill="#f5deb3" stroke="#f5deb3" points="152,-269 0,-269 0,-233 152,-233 152,-269"/>
<text text-anchor="middle" x="76" y="-247.3" font-family="Times,serif" font-size="14.00" fill="#000000">Create md&#45;outputs&#45;{PR}</text>
</g>
<!-- validate&#45;&gt;branch -->
<g id="edge3" class="edge">
<title>validate&#45;&gt;branch</title>
<path fill="none" stroke="#0000ff" d="M151.3159,-319.9735C137.4318,-307.2586 118.652,-290.0603 103.3188,-276.0183"/>
<polygon fill="#0000ff" stroke="#0000ff" points="105.3974,-273.1759 95.6588,-269.0034 100.6698,-278.3383 105.3974,-273.1759"/>
<text text-anchor="middle" x="144" y="-290.8" font-family="Times,serif" font-size="14.00" fill="#000000">valid</text>
</g>
<!-- comment -->
<g id="node5" class="node">
<title>comment</title>
<polygon fill="#f5deb3" stroke="#f5deb3" points="348.5,-269 187.5,-269 187.5,-233 348.5,-233 348.5,-269"/>
<text text-anchor="middle" x="268" y="-247.3" font-family="Times,serif" font-size="14.00" fill="#000000">Comment on Pull Request</text>
</g>
<!-- validate&#45;&gt;comment -->
<g id="edge4" class="edge">
<title>validate&#45;&gt;comment</title>
<path fill="none" stroke="#ff0000" d="M191.0985,-319.9735C205.2749,-307.2586 224.45,-290.0603 240.1061,-276.0183"/>
<polygon fill="#ff0000" stroke="#ff0000" points="242.8198,-278.2859 247.9273,-269.0034 238.1459,-273.0748 242.8198,-278.2859"/>
<text text-anchor="middle" x="245" y="-290.8" font-family="Times,serif" font-size="14.00" fill="#000000">invalid</text>
</g>
<!-- branch&#45;&gt;comment -->
<g id="edge5" class="edge">
<title>branch&#45;&gt;comment</title>
<path fill="none" stroke="#000000" d="M152.125,-251C160.4917,-251 168.8584,-251 177.2251,-251"/>
<polygon fill="#000000" stroke="#000000" points="177.4307,-254.5001 187.4307,-251 177.4306,-247.5001 177.4307,-254.5001"/>
</g>
<!-- review -->
<g id="node8" class="node">
<title>review</title>
<ellipse fill="#f5deb3" stroke="#f5deb3" cx="268" cy="-178" rx="79.0865" ry="18"/>
<text text-anchor="middle" x="268" y="-174.3" font-family="Times,serif" font-size="14.00" fill="#000000">Maintainer Review</text>
</g>
<!-- comment&#45;&gt;review -->
<g id="edge6" class="edge">
<title>comment&#45;&gt;review</title>
<path fill="none" stroke="#000000" d="M268,-232.9551C268,-224.8828 268,-215.1764 268,-206.1817"/>
<polygon fill="#000000" stroke="#000000" points="271.5001,-206.0903 268,-196.0904 264.5001,-206.0904 271.5001,-206.0903"/>
</g>
<!-- deploy -->
<g id="node6" class="node">
<title>deploy</title>
<polygon fill="#f5deb3" stroke="#f5deb3" points="366,-36 310,-36 310,0 366,0 366,-36"/>
<text text-anchor="middle" x="338" y="-14.3" font-family="Times,serif" font-size="14.00" fill="#000000">Deploy</text>
</g>
<!-- destroy -->
<g id="node7" class="node">
<title>destroy</title>
<polygon fill="#f5deb3" stroke="#f5deb3" points="289,-36 129,-36 129,0 289,0 289,-36"/>
<text text-anchor="middle" x="209" y="-14.3" font-family="Times,serif" font-size="14.00" fill="#000000">Destroy md&#45;outputs&#45;{PR}</text>
</g>
<!-- reject -->
<g id="node9" class="node">
<title>reject</title>
<polygon fill="#b22222" stroke="#b22222" points="199,-109 140.3474,-91 199,-73 257.6526,-91 199,-109"/>
<text text-anchor="middle" x="199" y="-87.3" font-family="Times,serif" font-size="14.00" fill="#000000">Rejected</text>
</g>
<!-- review&#45;&gt;reject -->
<g id="edge7" class="edge">
<title>review&#45;&gt;reject</title>
<path fill="none" stroke="#ff0000" d="M253.7032,-159.9735C243.012,-146.4933 228.3242,-127.9739 216.8598,-113.5189"/>
<polygon fill="#ff0000" stroke="#ff0000" points="219.4931,-111.2066 210.5369,-105.5465 214.0086,-115.5564 219.4931,-111.2066"/>
<text text-anchor="middle" x="252" y="-130.8" font-family="Times,serif" font-size="14.00" fill="#000000">close</text>
</g>
<!-- accept -->
<g id="node10" class="node">
<title>accept</title>
<polygon fill="#b0e0e6" stroke="#b0e0e6" points="338,-109 275.4946,-91 338,-73 400.5054,-91 338,-109"/>
<text text-anchor="middle" x="338" y="-87.3" font-family="Times,serif" font-size="14.00" fill="#000000">Accepted</text>
</g>
<!-- review&#45;&gt;accept -->
<g id="edge8" class="edge">
<title>review&#45;&gt;accept</title>
<path fill="none" stroke="#0000ff" d="M282.504,-159.9735C293.2832,-146.5765 308.067,-128.2024 319.6656,-113.7871"/>
<polygon fill="#0000ff" stroke="#0000ff" points="322.5303,-115.8099 326.0722,-105.8246 317.0764,-111.4217 322.5303,-115.8099"/>
<text text-anchor="middle" x="325.5" y="-130.8" font-family="Times,serif" font-size="14.00" fill="#000000">merge</text>
</g>
<!-- reject&#45;&gt;destroy -->
<g id="edge11" class="edge">
<title>reject&#45;&gt;destroy</title>
<path fill="none" stroke="#ff0000" d="M201.3699,-73.7C202.4945,-65.4902 203.8673,-55.4688 205.1368,-46.201"/>
<polygon fill="#ff0000" stroke="#ff0000" points="208.6179,-46.577 206.5076,-36.1945 201.6827,-45.6269 208.6179,-46.577"/>
</g>
<!-- accept&#45;&gt;deploy -->
<g id="edge9" class="edge">
<title>accept&#45;&gt;deploy</title>
<path fill="none" stroke="#0000ff" d="M338,-72.9551C338,-64.8828 338,-55.1764 338,-46.1817"/>
<polygon fill="#0000ff" stroke="#0000ff" points="341.5001,-46.0903 338,-36.0904 334.5001,-46.0904 341.5001,-46.0903"/>
</g>
<!-- accept&#45;&gt;destroy -->
<g id="edge10" class="edge">
<title>accept&#45;&gt;destroy</title>
<path fill="none" stroke="#0000ff" d="M316.6983,-78.9455C298.5842,-68.6949 272.0576,-53.6837 249.8638,-41.1245"/>
<polygon fill="#0000ff" stroke="#0000ff" points="251.3974,-37.9708 240.9705,-36.0918 247.9498,-44.063 251.3974,-37.9708"/>
</g>
</g>
</svg>
